<svg>
<symbol id="Logo" width="226" height="62" viewBox="0 0 226 62" fill="none" xmlns="http://www.w3.org/2000/svg">
<g clip-path="url(#clip0_2_1032)">
<path d="M22.7825 40.1768L28.2395 34.447L34.4468 40.1768H45.0878L28.1713 23.6013L11.3911 40.1768H22.7825Z" fill="white"/>
<path d="M38.4033 13.5742L30.3543 21.7596L35.6749 27.2166L38.4033 24.4881L53.3418 39.3583C49.9312 48.4305 41.2 54.9106 30.9 54.9106C17.6669 54.9106 6.95762 44.2014 6.95762 30.9682C7.02583 17.7351 17.7351 7.02583 30.9682 7.02583C42.7007 7.02583 52.5232 15.5523 54.5014 26.6709L61.7318 34.3106C61.8683 33.2192 61.9365 32.0596 61.9365 30.9682C61.9365 22.7146 58.7305 14.9384 52.8643 9.07219C46.998 3.20596 39.2219 0 30.9682 0C22.6464 0 14.9384 3.20596 9.07219 9.07219C3.20596 14.9384 0 22.6464 0 30.9682C0 39.2901 3.20596 46.998 9.07219 52.8643C14.9384 58.7305 22.7146 61.9365 30.9682 61.9365C39.2219 61.9365 46.998 58.7305 52.8643 52.8643C56.4795 49.249 59.0716 44.9517 60.504 40.2451C60.7769 39.4265 60.9815 38.5398 61.1861 37.7212L54.9106 31.1047L38.4033 13.5742Z" fill="white"/>
</g>
<path d="M93.154 36.322C91.5287 36.322 90.1027 36.0307 88.876 35.448C87.6493 34.85 86.7063 34.0143 86.047 32.941C85.3877 31.8677 85.058 30.6333 85.058 29.238C85.058 27.398 85.4797 25.742 86.323 24.27C87.1817 22.798 88.3777 21.648 89.911 20.82C91.4443 19.992 93.1923 19.578 95.155 19.578C96.6423 19.578 97.961 19.8463 99.111 20.383C100.261 20.9043 101.12 21.648 101.687 22.614L98.398 25.236C97.616 23.9787 96.4353 23.35 94.856 23.35C93.8287 23.35 92.924 23.5953 92.142 24.086C91.36 24.5613 90.7467 25.2283 90.302 26.087C89.8727 26.9303 89.658 27.881 89.658 28.939C89.658 30.0277 90.0107 30.9017 90.716 31.561C91.4213 32.2203 92.3797 32.55 93.591 32.55C95.1243 32.55 96.4353 31.929 97.524 30.687L100.215 33.332C99.341 34.39 98.3213 35.1567 97.156 35.632C95.9907 36.092 94.6567 36.322 93.154 36.322ZM112.671 32.872H105.817L103.954 36H99.1469L109.474 19.9H113.959L117.846 36H113.315L112.671 32.872ZM111.981 29.514L110.9 24.293L107.818 29.514H111.981ZM126.666 36.322C125.271 36.322 124.067 36.092 123.055 35.632C122.043 35.1567 121.269 34.482 120.732 33.608C120.195 32.734 119.927 31.7067 119.927 30.526C119.927 30.0353 119.988 29.468 120.111 28.824L121.905 19.9H126.459L124.688 28.755C124.596 29.215 124.55 29.6367 124.55 30.02C124.55 31.7067 125.439 32.55 127.218 32.55C128.184 32.55 128.943 32.2587 129.495 31.676C130.062 31.078 130.484 30.1043 130.76 28.755L132.531 19.9H137.016L135.199 29.031C134.218 33.8917 131.373 36.322 126.666 36.322ZM145.69 36.322C144.065 36.322 142.639 36.0307 141.412 35.448C140.185 34.85 139.242 34.0143 138.583 32.941C137.924 31.8677 137.594 30.6333 137.594 29.238C137.594 27.398 138.016 25.742 138.859 24.27C139.718 22.798 140.914 21.648 142.447 20.82C143.98 19.992 145.728 19.578 147.691 19.578C149.178 19.578 150.497 19.8463 151.647 20.383C152.797 20.9043 153.656 21.648 154.223 22.614L150.934 25.236C150.152 23.9787 148.971 23.35 147.392 23.35C146.365 23.35 145.46 23.5953 144.678 24.086C143.896 24.5613 143.283 25.2283 142.838 26.087C142.409 26.9303 142.194 27.881 142.194 28.939C142.194 30.0277 142.547 30.9017 143.252 31.561C143.957 32.2203 144.916 32.55 146.127 32.55C147.66 32.55 148.971 31.929 150.06 30.687L152.751 33.332C151.877 34.39 150.857 35.1567 149.692 35.632C148.527 36.092 147.193 36.322 145.69 36.322ZM165.207 32.872H158.353L156.49 36H151.683L162.01 19.9H166.495L170.382 36H165.851L165.207 32.872ZM164.517 29.514L163.436 24.293L160.354 29.514H164.517ZM177.699 36.322C176.365 36.322 175.1 36.161 173.904 35.839C172.708 35.517 171.734 35.103 170.983 34.597L172.777 31.193C173.59 31.7143 174.456 32.113 175.376 32.389C176.296 32.6497 177.216 32.78 178.136 32.78C179.01 32.78 179.685 32.6573 180.16 32.412C180.651 32.1513 180.896 31.7987 180.896 31.354C180.896 30.9707 180.674 30.6717 180.229 30.457C179.8 30.2423 179.125 30.0123 178.205 29.767C177.162 29.491 176.296 29.215 175.606 28.939C174.916 28.6477 174.318 28.2107 173.812 27.628C173.321 27.0453 173.076 26.2787 173.076 25.328C173.076 24.178 173.39 23.1737 174.019 22.315C174.648 21.441 175.545 20.7663 176.71 20.291C177.875 19.8157 179.24 19.578 180.804 19.578C181.954 19.578 183.027 19.7007 184.024 19.946C185.021 20.176 185.879 20.5133 186.6 20.958L184.944 24.339C184.315 23.9403 183.618 23.6413 182.851 23.442C182.1 23.2273 181.325 23.12 180.528 23.12C179.623 23.12 178.91 23.2657 178.389 23.557C177.883 23.8483 177.63 24.224 177.63 24.684C177.63 25.0827 177.852 25.3893 178.297 25.604C178.742 25.8187 179.432 26.0487 180.367 26.294C181.41 26.5547 182.268 26.823 182.943 27.099C183.633 27.375 184.223 27.7967 184.714 28.364C185.205 28.9313 185.45 29.675 185.45 30.595C185.45 31.7297 185.128 32.734 184.484 33.608C183.855 34.4667 182.951 35.1337 181.77 35.609C180.605 36.0843 179.248 36.322 177.699 36.322ZM194.431 36.322C193.035 36.322 191.832 36.092 190.82 35.632C189.808 35.1567 189.033 34.482 188.497 33.608C187.96 32.734 187.692 31.7067 187.692 30.526C187.692 30.0353 187.753 29.468 187.876 28.824L189.67 19.9H194.224L192.453 28.755C192.361 29.215 192.315 29.6367 192.315 30.02C192.315 31.7067 193.204 32.55 194.983 32.55C195.949 32.55 196.708 32.2587 197.26 31.676C197.827 31.078 198.249 30.1043 198.525 28.755L200.296 19.9H204.781L202.964 29.031C201.982 33.8917 199.138 36.322 194.431 36.322ZM210.672 36.322C209.338 36.322 208.073 36.161 206.877 35.839C205.681 35.517 204.707 35.103 203.956 34.597L205.75 31.193C206.562 31.7143 207.429 32.113 208.349 32.389C209.269 32.6497 210.189 32.78 211.109 32.78C211.983 32.78 212.657 32.6573 213.133 32.412C213.623 32.1513 213.869 31.7987 213.869 31.354C213.869 30.9707 213.646 30.6717 213.202 30.457C212.772 30.2423 212.098 30.0123 211.178 29.767C210.135 29.491 209.269 29.215 208.579 28.939C207.889 28.6477 207.291 28.2107 206.785 27.628C206.294 27.0453 206.049 26.2787 206.049 25.328C206.049 24.178 206.363 23.1737 206.992 22.315C207.62 21.441 208.517 20.7663 209.683 20.291C210.848 19.8157 212.213 19.578 213.777 19.578C214.927 19.578 216 19.7007 216.997 19.946C217.993 20.176 218.852 20.5133 219.573 20.958L217.917 24.339C217.288 23.9403 216.59 23.6413 215.824 23.442C215.072 23.2273 214.298 23.12 213.501 23.12C212.596 23.12 211.883 23.2657 211.362 23.557C210.856 23.8483 210.603 24.224 210.603 24.684C210.603 25.0827 210.825 25.3893 211.27 25.604C211.714 25.8187 212.404 26.0487 213.34 26.294C214.382 26.5547 215.241 26.823 215.916 27.099C216.606 27.375 217.196 27.7967 217.687 28.364C218.177 28.9313 218.423 29.675 218.423 30.595C218.423 31.7297 218.101 32.734 217.457 33.608C216.828 34.4667 215.923 35.1337 214.743 35.609C213.577 36.0843 212.22 36.322 210.672 36.322Z" fill="white"/>
<path d="M87.3006 51.1806C86.746 51.1806 86.242 51.0579 85.7886 50.8126C85.3406 50.5619 84.9886 50.2206 84.7326 49.7886C84.482 49.3566 84.3566 48.8712 84.3566 48.3326C84.3566 47.7939 84.482 47.3086 84.7326 46.8766C84.9886 46.4446 85.3406 46.1059 85.7886 45.8606C86.242 45.6099 86.746 45.4846 87.3006 45.4846C87.8553 45.4846 88.354 45.6072 88.7966 45.8526C89.2446 46.0979 89.5966 46.4392 89.8526 46.8766C90.1086 47.3086 90.2366 47.7939 90.2366 48.3326C90.2366 48.8712 90.1086 49.3592 89.8526 49.7966C89.5966 50.2286 89.2446 50.5672 88.7966 50.8126C88.354 51.0579 87.8553 51.1806 87.3006 51.1806ZM87.3006 50.6526C87.7433 50.6526 88.1433 50.5539 88.5006 50.3566C88.858 50.1539 89.138 49.8766 89.3406 49.5246C89.5433 49.1672 89.6446 48.7699 89.6446 48.3326C89.6446 47.8952 89.5433 47.5006 89.3406 47.1486C89.138 46.7912 88.858 46.5139 88.5006 46.3166C88.1433 46.1139 87.7433 46.0126 87.3006 46.0126C86.858 46.0126 86.4553 46.1139 86.0926 46.3166C85.7353 46.5139 85.4526 46.7912 85.2446 47.1486C85.042 47.5006 84.9406 47.8952 84.9406 48.3326C84.9406 48.7699 85.042 49.1672 85.2446 49.5246C85.4526 49.8766 85.7353 50.1539 86.0926 50.3566C86.4553 50.5539 86.858 50.6526 87.3006 50.6526ZM93.6813 46.8926C94.076 46.8926 94.4333 46.9832 94.7533 47.1646C95.0733 47.3406 95.324 47.5912 95.5053 47.9166C95.6867 48.2419 95.7773 48.6126 95.7773 49.0286C95.7773 49.4499 95.6867 49.8232 95.5053 50.1486C95.324 50.4739 95.0733 50.7272 94.7533 50.9086C94.4387 51.0846 94.0813 51.1726 93.6813 51.1726C93.34 51.1726 93.0307 51.1032 92.7533 50.9646C92.4813 50.8206 92.2573 50.6126 92.0813 50.3406V52.6846H91.5133V46.9246H92.0573V47.7566C92.228 47.4792 92.452 47.2659 92.7293 47.1166C93.012 46.9672 93.3293 46.8926 93.6813 46.8926ZM93.6413 50.6686C93.9347 50.6686 94.2013 50.6019 94.4413 50.4686C94.6813 50.3299 94.868 50.1352 95.0013 49.8846C95.14 49.6339 95.2093 49.3486 95.2093 49.0286C95.2093 48.7086 95.14 48.4259 95.0013 48.1806C94.868 47.9299 94.6813 47.7352 94.4413 47.5966C94.2013 47.4579 93.9347 47.3886 93.6413 47.3886C93.3427 47.3886 93.0733 47.4579 92.8333 47.5966C92.5987 47.7352 92.412 47.9299 92.2733 48.1806C92.14 48.4259 92.0733 48.7086 92.0733 49.0286C92.0733 49.3486 92.14 49.6339 92.2733 49.8846C92.412 50.1352 92.5987 50.3299 92.8333 50.4686C93.0733 50.6019 93.3427 50.6686 93.6413 50.6686ZM99.9737 47.4286H97.5657V51.1326H96.9977V46.9246H99.9737V47.4286ZM102.243 46.8926C102.792 46.8926 103.213 47.0312 103.507 47.3086C103.8 47.5806 103.947 47.9859 103.947 48.5246V51.1326H103.403V50.4766C103.275 50.6952 103.085 50.8659 102.835 50.9886C102.589 51.1112 102.296 51.1726 101.955 51.1726C101.485 51.1726 101.112 51.0606 100.835 50.8366C100.557 50.6126 100.419 50.3166 100.419 49.9486C100.419 49.5912 100.547 49.3032 100.803 49.0846C101.064 48.8659 101.477 48.7566 102.043 48.7566H103.379V48.5006C103.379 48.1379 103.277 47.8632 103.075 47.6766C102.872 47.4846 102.576 47.3886 102.187 47.3886C101.92 47.3886 101.664 47.4339 101.419 47.5246C101.173 47.6099 100.963 47.7299 100.787 47.8846L100.531 47.4606C100.744 47.2792 101 47.1406 101.299 47.0446C101.597 46.9432 101.912 46.8926 102.243 46.8926ZM102.043 50.7246C102.363 50.7246 102.637 50.6526 102.867 50.5086C103.096 50.3592 103.267 50.1459 103.379 49.8686V49.1806H102.059C101.339 49.1806 100.979 49.4312 100.979 49.9326C100.979 50.1779 101.072 50.3726 101.259 50.5166C101.445 50.6552 101.707 50.7246 102.043 50.7246ZM105.459 46.9246H106.027V48.7886H108.675V46.9246H109.243V51.1326H108.675V49.2766H106.027V51.1326H105.459V46.9246ZM110.857 46.9246H111.425V50.2686L114.233 46.9246H114.737V51.1326H114.169V47.7886L111.369 51.1326H110.857V46.9246ZM118.327 48.9406C118.626 49.0099 118.855 49.1299 119.015 49.3006C119.18 49.4712 119.263 49.6792 119.263 49.9246C119.263 50.1699 119.178 50.3886 119.007 50.5806C118.842 50.7726 118.615 50.9219 118.327 51.0286C118.039 51.1299 117.722 51.1806 117.375 51.1806C117.071 51.1806 116.772 51.1379 116.479 51.0526C116.186 50.9619 115.93 50.8312 115.711 50.6606L115.903 50.2366C116.095 50.3806 116.319 50.4926 116.575 50.5726C116.831 50.6526 117.09 50.6926 117.351 50.6926C117.74 50.6926 118.058 50.6206 118.303 50.4766C118.554 50.3272 118.679 50.1272 118.679 49.8766C118.679 49.6526 118.578 49.4792 118.375 49.3566C118.172 49.2286 117.895 49.1646 117.543 49.1646H116.823V48.7486H117.511C117.826 48.7486 118.079 48.6899 118.271 48.5726C118.463 48.4499 118.559 48.2872 118.559 48.0846C118.559 47.8606 118.45 47.6846 118.231 47.5566C118.018 47.4286 117.738 47.3646 117.391 47.3646C116.938 47.3646 116.49 47.4792 116.047 47.7086L115.887 47.2686C116.388 47.0072 116.908 46.8766 117.447 46.8766C117.767 46.8766 118.055 46.9246 118.311 47.0206C118.572 47.1112 118.775 47.2419 118.919 47.4126C119.068 47.5832 119.143 47.7806 119.143 48.0046C119.143 48.2179 119.068 48.4072 118.919 48.5726C118.775 48.7379 118.578 48.8606 118.327 48.9406ZM122 46.8926C122.55 46.8926 122.971 47.0312 123.264 47.3086C123.558 47.5806 123.704 47.9859 123.704 48.5246V51.1326H123.16V50.4766C123.032 50.6952 122.843 50.8659 122.592 50.9886C122.347 51.1112 122.054 51.1726 121.712 51.1726C121.243 51.1726 120.87 51.0606 120.592 50.8366C120.315 50.6126 120.176 50.3166 120.176 49.9486C120.176 49.5912 120.304 49.3032 120.56 49.0846C120.822 48.8659 121.235 48.7566 121.8 48.7566H123.136V48.5006C123.136 48.1379 123.035 47.8632 122.832 47.6766C122.63 47.4846 122.334 47.3886 121.944 47.3886C121.678 47.3886 121.422 47.4339 121.176 47.5246C120.931 47.6099 120.72 47.7299 120.544 47.8846L120.288 47.4606C120.502 47.2792 120.758 47.1406 121.056 47.0446C121.355 46.9432 121.67 46.8926 122 46.8926ZM121.8 50.7246C122.12 50.7246 122.395 50.6526 122.624 50.5086C122.854 50.3592 123.024 50.1459 123.136 49.8686V49.1806H121.816C121.096 49.1806 120.736 49.4312 120.736 49.9326C120.736 50.1779 120.83 50.3726 121.016 50.5166C121.203 50.6552 121.464 50.7246 121.8 50.7246ZM129.6 50.6366V52.1886H129.064V51.1326H125.216V46.9246H125.784V50.6366H128.352V46.9246H128.92V50.6366H129.6ZM130.685 46.9246H131.253V50.2686L134.061 46.9246H134.565V51.1326H133.997V47.7886L131.197 51.1326H130.685V46.9246ZM139.425 46.9246V51.1326H138.905V49.7406H137.585H137.425L136.449 51.1326H135.833L136.881 49.6606C136.556 49.5699 136.305 49.4152 136.129 49.1966C135.953 48.9779 135.865 48.7006 135.865 48.3646C135.865 47.8952 136.025 47.5379 136.345 47.2926C136.665 47.0472 137.102 46.9246 137.657 46.9246H139.425ZM136.441 48.3806C136.441 49.0046 136.838 49.3166 137.633 49.3166H138.905V47.4286H137.673C136.852 47.4286 136.441 47.7459 136.441 48.3806ZM146.914 46.9246V51.1326H146.346V47.4286H143.706V51.1326H143.138V46.9246H146.914ZM150.265 51.1726C149.86 51.1726 149.494 51.0819 149.169 50.9006C148.844 50.7139 148.588 50.4579 148.401 50.1326C148.214 49.8072 148.121 49.4392 148.121 49.0286C148.121 48.6179 148.214 48.2499 148.401 47.9246C148.588 47.5992 148.844 47.3459 149.169 47.1646C149.494 46.9832 149.86 46.8926 150.265 46.8926C150.67 46.8926 151.036 46.9832 151.361 47.1646C151.686 47.3459 151.94 47.5992 152.121 47.9246C152.308 48.2499 152.401 48.6179 152.401 49.0286C152.401 49.4392 152.308 49.8072 152.121 50.1326C151.94 50.4579 151.686 50.7139 151.361 50.9006C151.036 51.0819 150.67 51.1726 150.265 51.1726ZM150.265 50.6686C150.564 50.6686 150.83 50.6019 151.065 50.4686C151.305 50.3299 151.492 50.1352 151.625 49.8846C151.758 49.6339 151.825 49.3486 151.825 49.0286C151.825 48.7086 151.758 48.4232 151.625 48.1726C151.492 47.9219 151.305 47.7299 151.065 47.5966C150.83 47.4579 150.564 47.3886 150.265 47.3886C149.966 47.3886 149.697 47.4579 149.457 47.5966C149.222 47.7299 149.036 47.9219 148.897 48.1726C148.764 48.4232 148.697 48.7086 148.697 49.0286C148.697 49.3486 148.764 49.6339 148.897 49.8846C149.036 50.1352 149.222 50.3299 149.457 50.4686C149.697 50.6019 149.966 50.6686 150.265 50.6686ZM156.098 51.1326L154.762 49.3726L153.418 51.1326H152.778L154.442 48.9726L152.858 46.9246H153.498L154.762 48.5726L156.026 46.9246H156.65L155.066 48.9726L156.746 51.1326H156.098ZM159.265 51.1726C158.86 51.1726 158.494 51.0819 158.169 50.9006C157.844 50.7139 157.588 50.4579 157.401 50.1326C157.214 49.8072 157.121 49.4392 157.121 49.0286C157.121 48.6179 157.214 48.2499 157.401 47.9246C157.588 47.5992 157.844 47.3459 158.169 47.1646C158.494 46.9832 158.86 46.8926 159.265 46.8926C159.67 46.8926 160.036 46.9832 160.361 47.1646C160.686 47.3459 160.94 47.5992 161.121 47.9246C161.308 48.2499 161.401 48.6179 161.401 49.0286C161.401 49.4392 161.308 49.8072 161.121 50.1326C160.94 50.4579 160.686 50.7139 160.361 50.9006C160.036 51.0819 159.67 51.1726 159.265 51.1726ZM159.265 50.6686C159.564 50.6686 159.83 50.6019 160.065 50.4686C160.305 50.3299 160.492 50.1352 160.625 49.8846C160.758 49.6339 160.825 49.3486 160.825 49.0286C160.825 48.7086 160.758 48.4232 160.625 48.1726C160.492 47.9219 160.305 47.7299 160.065 47.5966C159.83 47.4579 159.564 47.3886 159.265 47.3886C158.966 47.3886 158.697 47.4579 158.457 47.5966C158.222 47.7299 158.036 47.9219 157.897 48.1726C157.764 48.4232 157.697 48.7086 157.697 49.0286C157.697 49.3486 157.764 49.6339 157.897 49.8846C158.036 50.1352 158.222 50.3299 158.457 50.4686C158.697 50.6019 158.966 50.6686 159.265 50.6686ZM166.695 50.6366V52.1486H166.159V51.1326H162.391V52.1486H161.855V50.6366H162.095C162.378 50.6206 162.57 50.4126 162.671 50.0126C162.773 49.6126 162.842 49.0526 162.879 48.3326L162.935 46.9246H166.039V50.6366H166.695ZM163.399 48.3646C163.373 48.9619 163.322 49.4552 163.247 49.8446C163.173 50.2286 163.039 50.4926 162.847 50.6366H165.471V47.4286H163.447L163.399 48.3646ZM169.538 51.1726C169.133 51.1726 168.768 51.0819 168.442 50.9006C168.117 50.7139 167.861 50.4579 167.674 50.1326C167.488 49.8072 167.394 49.4392 167.394 49.0286C167.394 48.6179 167.488 48.2499 167.674 47.9246C167.861 47.5992 168.117 47.3459 168.442 47.1646C168.768 46.9832 169.133 46.8926 169.538 46.8926C169.944 46.8926 170.309 46.9832 170.634 47.1646C170.96 47.3459 171.213 47.5992 171.394 47.9246C171.581 48.2499 171.674 48.6179 171.674 49.0286C171.674 49.4392 171.581 49.8072 171.394 50.1326C171.213 50.4579 170.96 50.7139 170.634 50.9006C170.309 51.0819 169.944 51.1726 169.538 51.1726ZM169.538 50.6686C169.837 50.6686 170.104 50.6019 170.338 50.4686C170.578 50.3299 170.765 50.1352 170.898 49.8846C171.032 49.6339 171.098 49.3486 171.098 49.0286C171.098 48.7086 171.032 48.4232 170.898 48.1726C170.765 47.9219 170.578 47.7299 170.338 47.5966C170.104 47.4579 169.837 47.3886 169.538 47.3886C169.24 47.3886 168.97 47.4579 168.73 47.5966C168.496 47.7299 168.309 47.9219 168.17 48.1726C168.037 48.4232 167.97 48.7086 167.97 49.0286C167.97 49.3486 168.037 49.6339 168.17 49.8846C168.309 50.1352 168.496 50.3299 168.73 50.4686C168.97 50.6019 169.24 50.6686 169.538 50.6686ZM175.568 48.9566C176.139 49.0899 176.424 49.4339 176.424 49.9886C176.424 50.3566 176.288 50.6392 176.016 50.8366C175.744 51.0339 175.339 51.1326 174.8 51.1326H172.888V46.9246H174.744C175.224 46.9246 175.6 47.0179 175.872 47.2046C176.144 47.3912 176.28 47.6579 176.28 48.0046C176.28 48.2339 176.216 48.4312 176.088 48.5966C175.966 48.7566 175.792 48.8766 175.568 48.9566ZM173.44 48.7966H174.704C175.03 48.7966 175.278 48.7352 175.448 48.6126C175.624 48.4899 175.712 48.3112 175.712 48.0766C175.712 47.8419 175.624 47.6659 175.448 47.5486C175.278 47.4312 175.03 47.3726 174.704 47.3726H173.44V48.7966ZM174.776 50.6846C175.139 50.6846 175.411 50.6259 175.592 50.5086C175.774 50.3912 175.864 50.2072 175.864 49.9566C175.864 49.7059 175.782 49.5219 175.616 49.4046C175.451 49.2819 175.19 49.2206 174.832 49.2206H173.44V50.6846H174.776ZM182.529 48.9566C183.1 49.0899 183.385 49.4339 183.385 49.9886C183.385 50.3566 183.249 50.6392 182.977 50.8366C182.705 51.0339 182.3 51.1326 181.761 51.1326H179.849V46.9246H181.705C182.185 46.9246 182.561 47.0179 182.833 47.2046C183.105 47.3912 183.241 47.6579 183.241 48.0046C183.241 48.2339 183.177 48.4312 183.049 48.5966C182.927 48.7566 182.753 48.8766 182.529 48.9566ZM180.401 48.7966H181.665C181.991 48.7966 182.239 48.7352 182.409 48.6126C182.585 48.4899 182.673 48.3112 182.673 48.0766C182.673 47.8419 182.585 47.6659 182.409 47.5486C182.239 47.4312 181.991 47.3726 181.665 47.3726H180.401V48.7966ZM181.737 50.6846C182.1 50.6846 182.372 50.6259 182.553 50.5086C182.735 50.3912 182.825 50.2072 182.825 49.9566C182.825 49.7059 182.743 49.5219 182.577 49.4046C182.412 49.2819 182.151 49.2206 181.793 49.2206H180.401V50.6846H181.737ZM189.786 47.4286H187.378V51.1326H186.81V46.9246H189.786V47.4286ZM192.148 51.1726C191.742 51.1726 191.377 51.0819 191.052 50.9006C190.726 50.7139 190.47 50.4579 190.284 50.1326C190.097 49.8072 190.004 49.4392 190.004 49.0286C190.004 48.6179 190.097 48.2499 190.284 47.9246C190.47 47.5992 190.726 47.3459 191.052 47.1646C191.377 46.9832 191.742 46.8926 192.148 46.8926C192.553 46.8926 192.918 46.9832 193.244 47.1646C193.569 47.3459 193.822 47.5992 194.004 47.9246C194.19 48.2499 194.284 48.6179 194.284 49.0286C194.284 49.4392 194.19 49.8072 194.004 50.1326C193.822 50.4579 193.569 50.7139 193.244 50.9006C192.918 51.0819 192.553 51.1726 192.148 51.1726ZM192.148 50.6686C192.446 50.6686 192.713 50.6019 192.948 50.4686C193.188 50.3299 193.374 50.1352 193.508 49.8846C193.641 49.6339 193.708 49.3486 193.708 49.0286C193.708 48.7086 193.641 48.4232 193.508 48.1726C193.374 47.9219 193.188 47.7299 192.948 47.5966C192.713 47.4579 192.446 47.3886 192.148 47.3886C191.849 47.3886 191.58 47.4579 191.34 47.5966C191.105 47.7299 190.918 47.9219 190.78 48.1726C190.646 48.4232 190.58 48.7086 190.58 49.0286C190.58 49.3486 190.646 49.6339 190.78 49.8846C190.918 50.1352 191.105 50.3299 191.34 50.4686C191.58 50.6019 191.849 50.6686 192.148 50.6686ZM197.666 46.8926C198.06 46.8926 198.418 46.9832 198.738 47.1646C199.058 47.3406 199.308 47.5912 199.49 47.9166C199.671 48.2419 199.762 48.6126 199.762 49.0286C199.762 49.4499 199.671 49.8232 199.49 50.1486C199.308 50.4739 199.058 50.7272 198.738 50.9086C198.423 51.0846 198.066 51.1726 197.666 51.1726C197.324 51.1726 197.015 51.1032 196.738 50.9646C196.466 50.8206 196.242 50.6126 196.066 50.3406V52.6846H195.498V46.9246H196.042V47.7566C196.212 47.4792 196.436 47.2659 196.714 47.1166C196.996 46.9672 197.314 46.8926 197.666 46.8926ZM197.626 50.6686C197.919 50.6686 198.186 50.6019 198.426 50.4686C198.666 50.3299 198.852 50.1352 198.986 49.8846C199.124 49.6339 199.194 49.3486 199.194 49.0286C199.194 48.7086 199.124 48.4259 198.986 48.1806C198.852 47.9299 198.666 47.7352 198.426 47.5966C198.186 47.4579 197.919 47.3886 197.626 47.3886C197.327 47.3886 197.058 47.4579 196.818 47.5966C196.583 47.7352 196.396 47.9299 196.258 48.1806C196.124 48.4259 196.058 48.7086 196.058 49.0286C196.058 49.3486 196.124 49.6339 196.258 49.8846C196.396 50.1352 196.583 50.3299 196.818 50.4686C197.058 50.6019 197.327 50.6686 197.626 50.6686ZM202.75 48.4126C203.278 48.4179 203.681 48.5352 203.958 48.7646C204.235 48.9939 204.374 49.3246 204.374 49.7566C204.374 50.2046 204.225 50.5486 203.926 50.7886C203.627 51.0286 203.201 51.1459 202.646 51.1406L200.982 51.1326V46.9246H201.55V48.3966L202.75 48.4126ZM205.078 46.9246H205.646V51.1326H205.078V46.9246ZM202.614 50.7086C203.003 50.7139 203.297 50.6366 203.494 50.4766C203.697 50.3112 203.798 50.0712 203.798 49.7566C203.798 49.4472 203.699 49.2179 203.502 49.0686C203.305 48.9192 203.009 48.8419 202.614 48.8366L201.55 48.8206V50.6926L202.614 50.7086Z" fill="white"/>
<defs>
<clipPath id="clip0_2_1032">
<rect width="61.8683" height="61.8683" fill="white"/>
</clipPath>
</defs>
</symbol>

<symbol id="Logobl" width="226" height="62" viewBox="0 0 226 62" fill="none" xmlns="http://www.w3.org/2000/svg">
<g clip-path="url(#clip0_2_1032)">
<path d="M22.7825 40.1768L28.2395 34.447L34.4468 40.1768H45.0878L28.1713 23.6013L11.3911 40.1768H22.7825Z" fill="black"/>
<path d="M38.4033 13.5742L30.3543 21.7596L35.6749 27.2166L38.4033 24.4881L53.3418 39.3583C49.9312 48.4305 41.2 54.9106 30.9 54.9106C17.6669 54.9106 6.95762 44.2014 6.95762 30.9682C7.02583 17.7351 17.7351 7.02583 30.9682 7.02583C42.7007 7.02583 52.5232 15.5523 54.5014 26.6709L61.7318 34.3106C61.8683 33.2192 61.9365 32.0596 61.9365 30.9682C61.9365 22.7146 58.7305 14.9384 52.8643 9.07219C46.998 3.20596 39.2219 0 30.9682 0C22.6464 0 14.9384 3.20596 9.07219 9.07219C3.20596 14.9384 0 22.6464 0 30.9682C0 39.2901 3.20596 46.998 9.07219 52.8643C14.9384 58.7305 22.7146 61.9365 30.9682 61.9365C39.2219 61.9365 46.998 58.7305 52.8643 52.8643C56.4795 49.249 59.0716 44.9517 60.504 40.2451C60.7769 39.4265 60.9815 38.5398 61.1861 37.7212L54.9106 31.1047L38.4033 13.5742Z" fill="black"/>
</g>
<path d="M93.154 36.322C91.5287 36.322 90.1027 36.0307 88.876 35.448C87.6493 34.85 86.7063 34.0143 86.047 32.941C85.3877 31.8677 85.058 30.6333 85.058 29.238C85.058 27.398 85.4797 25.742 86.323 24.27C87.1817 22.798 88.3777 21.648 89.911 20.82C91.4443 19.992 93.1923 19.578 95.155 19.578C96.6423 19.578 97.961 19.8463 99.111 20.383C100.261 20.9043 101.12 21.648 101.687 22.614L98.398 25.236C97.616 23.9787 96.4353 23.35 94.856 23.35C93.8287 23.35 92.924 23.5953 92.142 24.086C91.36 24.5613 90.7467 25.2283 90.302 26.087C89.8727 26.9303 89.658 27.881 89.658 28.939C89.658 30.0277 90.0107 30.9017 90.716 31.561C91.4213 32.2203 92.3797 32.55 93.591 32.55C95.1243 32.55 96.4353 31.929 97.524 30.687L100.215 33.332C99.341 34.39 98.3213 35.1567 97.156 35.632C95.9907 36.092 94.6567 36.322 93.154 36.322ZM112.671 32.872H105.817L103.954 36H99.1469L109.474 19.9H113.959L117.846 36H113.315L112.671 32.872ZM111.981 29.514L110.9 24.293L107.818 29.514H111.981ZM126.666 36.322C125.271 36.322 124.067 36.092 123.055 35.632C122.043 35.1567 121.269 34.482 120.732 33.608C120.195 32.734 119.927 31.7067 119.927 30.526C119.927 30.0353 119.988 29.468 120.111 28.824L121.905 19.9H126.459L124.688 28.755C124.596 29.215 124.55 29.6367 124.55 30.02C124.55 31.7067 125.439 32.55 127.218 32.55C128.184 32.55 128.943 32.2587 129.495 31.676C130.062 31.078 130.484 30.1043 130.76 28.755L132.531 19.9H137.016L135.199 29.031C134.218 33.8917 131.373 36.322 126.666 36.322ZM145.69 36.322C144.065 36.322 142.639 36.0307 141.412 35.448C140.185 34.85 139.242 34.0143 138.583 32.941C137.924 31.8677 137.594 30.6333 137.594 29.238C137.594 27.398 138.016 25.742 138.859 24.27C139.718 22.798 140.914 21.648 142.447 20.82C143.98 19.992 145.728 19.578 147.691 19.578C149.178 19.578 150.497 19.8463 151.647 20.383C152.797 20.9043 153.656 21.648 154.223 22.614L150.934 25.236C150.152 23.9787 148.971 23.35 147.392 23.35C146.365 23.35 145.46 23.5953 144.678 24.086C143.896 24.5613 143.283 25.2283 142.838 26.087C142.409 26.9303 142.194 27.881 142.194 28.939C142.194 30.0277 142.547 30.9017 143.252 31.561C143.957 32.2203 144.916 32.55 146.127 32.55C147.66 32.55 148.971 31.929 150.06 30.687L152.751 33.332C151.877 34.39 150.857 35.1567 149.692 35.632C148.527 36.092 147.193 36.322 145.69 36.322ZM165.207 32.872H158.353L156.49 36H151.683L162.01 19.9H166.495L170.382 36H165.851L165.207 32.872ZM164.517 29.514L163.436 24.293L160.354 29.514H164.517ZM177.699 36.322C176.365 36.322 175.1 36.161 173.904 35.839C172.708 35.517 171.734 35.103 170.983 34.597L172.777 31.193C173.59 31.7143 174.456 32.113 175.376 32.389C176.296 32.6497 177.216 32.78 178.136 32.78C179.01 32.78 179.685 32.6573 180.16 32.412C180.651 32.1513 180.896 31.7987 180.896 31.354C180.896 30.9707 180.674 30.6717 180.229 30.457C179.8 30.2423 179.125 30.0123 178.205 29.767C177.162 29.491 176.296 29.215 175.606 28.939C174.916 28.6477 174.318 28.2107 173.812 27.628C173.321 27.0453 173.076 26.2787 173.076 25.328C173.076 24.178 173.39 23.1737 174.019 22.315C174.648 21.441 175.545 20.7663 176.71 20.291C177.875 19.8157 179.24 19.578 180.804 19.578C181.954 19.578 183.027 19.7007 184.024 19.946C185.021 20.176 185.879 20.5133 186.6 20.958L184.944 24.339C184.315 23.9403 183.618 23.6413 182.851 23.442C182.1 23.2273 181.325 23.12 180.528 23.12C179.623 23.12 178.91 23.2657 178.389 23.557C177.883 23.8483 177.63 24.224 177.63 24.684C177.63 25.0827 177.852 25.3893 178.297 25.604C178.742 25.8187 179.432 26.0487 180.367 26.294C181.41 26.5547 182.268 26.823 182.943 27.099C183.633 27.375 184.223 27.7967 184.714 28.364C185.205 28.9313 185.45 29.675 185.45 30.595C185.45 31.7297 185.128 32.734 184.484 33.608C183.855 34.4667 182.951 35.1337 181.77 35.609C180.605 36.0843 179.248 36.322 177.699 36.322ZM194.431 36.322C193.035 36.322 191.832 36.092 190.82 35.632C189.808 35.1567 189.033 34.482 188.497 33.608C187.96 32.734 187.692 31.7067 187.692 30.526C187.692 30.0353 187.753 29.468 187.876 28.824L189.67 19.9H194.224L192.453 28.755C192.361 29.215 192.315 29.6367 192.315 30.02C192.315 31.7067 193.204 32.55 194.983 32.55C195.949 32.55 196.708 32.2587 197.26 31.676C197.827 31.078 198.249 30.1043 198.525 28.755L200.296 19.9H204.781L202.964 29.031C201.982 33.8917 199.138 36.322 194.431 36.322ZM210.672 36.322C209.338 36.322 208.073 36.161 206.877 35.839C205.681 35.517 204.707 35.103 203.956 34.597L205.75 31.193C206.562 31.7143 207.429 32.113 208.349 32.389C209.269 32.6497 210.189 32.78 211.109 32.78C211.983 32.78 212.657 32.6573 213.133 32.412C213.623 32.1513 213.869 31.7987 213.869 31.354C213.869 30.9707 213.646 30.6717 213.202 30.457C212.772 30.2423 212.098 30.0123 211.178 29.767C210.135 29.491 209.269 29.215 208.579 28.939C207.889 28.6477 207.291 28.2107 206.785 27.628C206.294 27.0453 206.049 26.2787 206.049 25.328C206.049 24.178 206.363 23.1737 206.992 22.315C207.62 21.441 208.517 20.7663 209.683 20.291C210.848 19.8157 212.213 19.578 213.777 19.578C214.927 19.578 216 19.7007 216.997 19.946C217.993 20.176 218.852 20.5133 219.573 20.958L217.917 24.339C217.288 23.9403 216.59 23.6413 215.824 23.442C215.072 23.2273 214.298 23.12 213.501 23.12C212.596 23.12 211.883 23.2657 211.362 23.557C210.856 23.8483 210.603 24.224 210.603 24.684C210.603 25.0827 210.825 25.3893 211.27 25.604C211.714 25.8187 212.404 26.0487 213.34 26.294C214.382 26.5547 215.241 26.823 215.916 27.099C216.606 27.375 217.196 27.7967 217.687 28.364C218.177 28.9313 218.423 29.675 218.423 30.595C218.423 31.7297 218.101 32.734 217.457 33.608C216.828 34.4667 215.923 35.1337 214.743 35.609C213.577 36.0843 212.22 36.322 210.672 36.322Z" fill="black"/>
<path d="M87.3006 51.1806C86.746 51.1806 86.242 51.0579 85.7886 50.8126C85.3406 50.5619 84.9886 50.2206 84.7326 49.7886C84.482 49.3566 84.3566 48.8712 84.3566 48.3326C84.3566 47.7939 84.482 47.3086 84.7326 46.8766C84.9886 46.4446 85.3406 46.1059 85.7886 45.8606C86.242 45.6099 86.746 45.4846 87.3006 45.4846C87.8553 45.4846 88.354 45.6072 88.7966 45.8526C89.2446 46.0979 89.5966 46.4392 89.8526 46.8766C90.1086 47.3086 90.2366 47.7939 90.2366 48.3326C90.2366 48.8712 90.1086 49.3592 89.8526 49.7966C89.5966 50.2286 89.2446 50.5672 88.7966 50.8126C88.354 51.0579 87.8553 51.1806 87.3006 51.1806ZM87.3006 50.6526C87.7433 50.6526 88.1433 50.5539 88.5006 50.3566C88.858 50.1539 89.138 49.8766 89.3406 49.5246C89.5433 49.1672 89.6446 48.7699 89.6446 48.3326C89.6446 47.8952 89.5433 47.5006 89.3406 47.1486C89.138 46.7912 88.858 46.5139 88.5006 46.3166C88.1433 46.1139 87.7433 46.0126 87.3006 46.0126C86.858 46.0126 86.4553 46.1139 86.0926 46.3166C85.7353 46.5139 85.4526 46.7912 85.2446 47.1486C85.042 47.5006 84.9406 47.8952 84.9406 48.3326C84.9406 48.7699 85.042 49.1672 85.2446 49.5246C85.4526 49.8766 85.7353 50.1539 86.0926 50.3566C86.4553 50.5539 86.858 50.6526 87.3006 50.6526ZM93.6813 46.8926C94.076 46.8926 94.4333 46.9832 94.7533 47.1646C95.0733 47.3406 95.324 47.5912 95.5053 47.9166C95.6867 48.2419 95.7773 48.6126 95.7773 49.0286C95.7773 49.4499 95.6867 49.8232 95.5053 50.1486C95.324 50.4739 95.0733 50.7272 94.7533 50.9086C94.4387 51.0846 94.0813 51.1726 93.6813 51.1726C93.34 51.1726 93.0307 51.1032 92.7533 50.9646C92.4813 50.8206 92.2573 50.6126 92.0813 50.3406V52.6846H91.5133V46.9246H92.0573V47.7566C92.228 47.4792 92.452 47.2659 92.7293 47.1166C93.012 46.9672 93.3293 46.8926 93.6813 46.8926ZM93.6413 50.6686C93.9347 50.6686 94.2013 50.6019 94.4413 50.4686C94.6813 50.3299 94.868 50.1352 95.0013 49.8846C95.14 49.6339 95.2093 49.3486 95.2093 49.0286C95.2093 48.7086 95.14 48.4259 95.0013 48.1806C94.868 47.9299 94.6813 47.7352 94.4413 47.5966C94.2013 47.4579 93.9347 47.3886 93.6413 47.3886C93.3427 47.3886 93.0733 47.4579 92.8333 47.5966C92.5987 47.7352 92.412 47.9299 92.2733 48.1806C92.14 48.4259 92.0733 48.7086 92.0733 49.0286C92.0733 49.3486 92.14 49.6339 92.2733 49.8846C92.412 50.1352 92.5987 50.3299 92.8333 50.4686C93.0733 50.6019 93.3427 50.6686 93.6413 50.6686ZM99.9737 47.4286H97.5657V51.1326H96.9977V46.9246H99.9737V47.4286ZM102.243 46.8926C102.792 46.8926 103.213 47.0312 103.507 47.3086C103.8 47.5806 103.947 47.9859 103.947 48.5246V51.1326H103.403V50.4766C103.275 50.6952 103.085 50.8659 102.835 50.9886C102.589 51.1112 102.296 51.1726 101.955 51.1726C101.485 51.1726 101.112 51.0606 100.835 50.8366C100.557 50.6126 100.419 50.3166 100.419 49.9486C100.419 49.5912 100.547 49.3032 100.803 49.0846C101.064 48.8659 101.477 48.7566 102.043 48.7566H103.379V48.5006C103.379 48.1379 103.277 47.8632 103.075 47.6766C102.872 47.4846 102.576 47.3886 102.187 47.3886C101.92 47.3886 101.664 47.4339 101.419 47.5246C101.173 47.6099 100.963 47.7299 100.787 47.8846L100.531 47.4606C100.744 47.2792 101 47.1406 101.299 47.0446C101.597 46.9432 101.912 46.8926 102.243 46.8926ZM102.043 50.7246C102.363 50.7246 102.637 50.6526 102.867 50.5086C103.096 50.3592 103.267 50.1459 103.379 49.8686V49.1806H102.059C101.339 49.1806 100.979 49.4312 100.979 49.9326C100.979 50.1779 101.072 50.3726 101.259 50.5166C101.445 50.6552 101.707 50.7246 102.043 50.7246ZM105.459 46.9246H106.027V48.7886H108.675V46.9246H109.243V51.1326H108.675V49.2766H106.027V51.1326H105.459V46.9246ZM110.857 46.9246H111.425V50.2686L114.233 46.9246H114.737V51.1326H114.169V47.7886L111.369 51.1326H110.857V46.9246ZM118.327 48.9406C118.626 49.0099 118.855 49.1299 119.015 49.3006C119.18 49.4712 119.263 49.6792 119.263 49.9246C119.263 50.1699 119.178 50.3886 119.007 50.5806C118.842 50.7726 118.615 50.9219 118.327 51.0286C118.039 51.1299 117.722 51.1806 117.375 51.1806C117.071 51.1806 116.772 51.1379 116.479 51.0526C116.186 50.9619 115.93 50.8312 115.711 50.6606L115.903 50.2366C116.095 50.3806 116.319 50.4926 116.575 50.5726C116.831 50.6526 117.09 50.6926 117.351 50.6926C117.74 50.6926 118.058 50.6206 118.303 50.4766C118.554 50.3272 118.679 50.1272 118.679 49.8766C118.679 49.6526 118.578 49.4792 118.375 49.3566C118.172 49.2286 117.895 49.1646 117.543 49.1646H116.823V48.7486H117.511C117.826 48.7486 118.079 48.6899 118.271 48.5726C118.463 48.4499 118.559 48.2872 118.559 48.0846C118.559 47.8606 118.45 47.6846 118.231 47.5566C118.018 47.4286 117.738 47.3646 117.391 47.3646C116.938 47.3646 116.49 47.4792 116.047 47.7086L115.887 47.2686C116.388 47.0072 116.908 46.8766 117.447 46.8766C117.767 46.8766 118.055 46.9246 118.311 47.0206C118.572 47.1112 118.775 47.2419 118.919 47.4126C119.068 47.5832 119.143 47.7806 119.143 48.0046C119.143 48.2179 119.068 48.4072 118.919 48.5726C118.775 48.7379 118.578 48.8606 118.327 48.9406ZM122 46.8926C122.55 46.8926 122.971 47.0312 123.264 47.3086C123.558 47.5806 123.704 47.9859 123.704 48.5246V51.1326H123.16V50.4766C123.032 50.6952 122.843 50.8659 122.592 50.9886C122.347 51.1112 122.054 51.1726 121.712 51.1726C121.243 51.1726 120.87 51.0606 120.592 50.8366C120.315 50.6126 120.176 50.3166 120.176 49.9486C120.176 49.5912 120.304 49.3032 120.56 49.0846C120.822 48.8659 121.235 48.7566 121.8 48.7566H123.136V48.5006C123.136 48.1379 123.035 47.8632 122.832 47.6766C122.63 47.4846 122.334 47.3886 121.944 47.3886C121.678 47.3886 121.422 47.4339 121.176 47.5246C120.931 47.6099 120.72 47.7299 120.544 47.8846L120.288 47.4606C120.502 47.2792 120.758 47.1406 121.056 47.0446C121.355 46.9432 121.67 46.8926 122 46.8926ZM121.8 50.7246C122.12 50.7246 122.395 50.6526 122.624 50.5086C122.854 50.3592 123.024 50.1459 123.136 49.8686V49.1806H121.816C121.096 49.1806 120.736 49.4312 120.736 49.9326C120.736 50.1779 120.83 50.3726 121.016 50.5166C121.203 50.6552 121.464 50.7246 121.8 50.7246ZM129.6 50.6366V52.1886H129.064V51.1326H125.216V46.9246H125.784V50.6366H128.352V46.9246H128.92V50.6366H129.6ZM130.685 46.9246H131.253V50.2686L134.061 46.9246H134.565V51.1326H133.997V47.7886L131.197 51.1326H130.685V46.9246ZM139.425 46.9246V51.1326H138.905V49.7406H137.585H137.425L136.449 51.1326H135.833L136.881 49.6606C136.556 49.5699 136.305 49.4152 136.129 49.1966C135.953 48.9779 135.865 48.7006 135.865 48.3646C135.865 47.8952 136.025 47.5379 136.345 47.2926C136.665 47.0472 137.102 46.9246 137.657 46.9246H139.425ZM136.441 48.3806C136.441 49.0046 136.838 49.3166 137.633 49.3166H138.905V47.4286H137.673C136.852 47.4286 136.441 47.7459 136.441 48.3806ZM146.914 46.9246V51.1326H146.346V47.4286H143.706V51.1326H143.138V46.9246H146.914ZM150.265 51.1726C149.86 51.1726 149.494 51.0819 149.169 50.9006C148.844 50.7139 148.588 50.4579 148.401 50.1326C148.214 49.8072 148.121 49.4392 148.121 49.0286C148.121 48.6179 148.214 48.2499 148.401 47.9246C148.588 47.5992 148.844 47.3459 149.169 47.1646C149.494 46.9832 149.86 46.8926 150.265 46.8926C150.67 46.8926 151.036 46.9832 151.361 47.1646C151.686 47.3459 151.94 47.5992 152.121 47.9246C152.308 48.2499 152.401 48.6179 152.401 49.0286C152.401 49.4392 152.308 49.8072 152.121 50.1326C151.94 50.4579 151.686 50.7139 151.361 50.9006C151.036 51.0819 150.67 51.1726 150.265 51.1726ZM150.265 50.6686C150.564 50.6686 150.83 50.6019 151.065 50.4686C151.305 50.3299 151.492 50.1352 151.625 49.8846C151.758 49.6339 151.825 49.3486 151.825 49.0286C151.825 48.7086 151.758 48.4232 151.625 48.1726C151.492 47.9219 151.305 47.7299 151.065 47.5966C150.83 47.4579 150.564 47.3886 150.265 47.3886C149.966 47.3886 149.697 47.4579 149.457 47.5966C149.222 47.7299 149.036 47.9219 148.897 48.1726C148.764 48.4232 148.697 48.7086 148.697 49.0286C148.697 49.3486 148.764 49.6339 148.897 49.8846C149.036 50.1352 149.222 50.3299 149.457 50.4686C149.697 50.6019 149.966 50.6686 150.265 50.6686ZM156.098 51.1326L154.762 49.3726L153.418 51.1326H152.778L154.442 48.9726L152.858 46.9246H153.498L154.762 48.5726L156.026 46.9246H156.65L155.066 48.9726L156.746 51.1326H156.098ZM159.265 51.1726C158.86 51.1726 158.494 51.0819 158.169 50.9006C157.844 50.7139 157.588 50.4579 157.401 50.1326C157.214 49.8072 157.121 49.4392 157.121 49.0286C157.121 48.6179 157.214 48.2499 157.401 47.9246C157.588 47.5992 157.844 47.3459 158.169 47.1646C158.494 46.9832 158.86 46.8926 159.265 46.8926C159.67 46.8926 160.036 46.9832 160.361 47.1646C160.686 47.3459 160.94 47.5992 161.121 47.9246C161.308 48.2499 161.401 48.6179 161.401 49.0286C161.401 49.4392 161.308 49.8072 161.121 50.1326C160.94 50.4579 160.686 50.7139 160.361 50.9006C160.036 51.0819 159.67 51.1726 159.265 51.1726ZM159.265 50.6686C159.564 50.6686 159.83 50.6019 160.065 50.4686C160.305 50.3299 160.492 50.1352 160.625 49.8846C160.758 49.6339 160.825 49.3486 160.825 49.0286C160.825 48.7086 160.758 48.4232 160.625 48.1726C160.492 47.9219 160.305 47.7299 160.065 47.5966C159.83 47.4579 159.564 47.3886 159.265 47.3886C158.966 47.3886 158.697 47.4579 158.457 47.5966C158.222 47.7299 158.036 47.9219 157.897 48.1726C157.764 48.4232 157.697 48.7086 157.697 49.0286C157.697 49.3486 157.764 49.6339 157.897 49.8846C158.036 50.1352 158.222 50.3299 158.457 50.4686C158.697 50.6019 158.966 50.6686 159.265 50.6686ZM166.695 50.6366V52.1486H166.159V51.1326H162.391V52.1486H161.855V50.6366H162.095C162.378 50.6206 162.57 50.4126 162.671 50.0126C162.773 49.6126 162.842 49.0526 162.879 48.3326L162.935 46.9246H166.039V50.6366H166.695ZM163.399 48.3646C163.373 48.9619 163.322 49.4552 163.247 49.8446C163.173 50.2286 163.039 50.4926 162.847 50.6366H165.471V47.4286H163.447L163.399 48.3646ZM169.538 51.1726C169.133 51.1726 168.768 51.0819 168.442 50.9006C168.117 50.7139 167.861 50.4579 167.674 50.1326C167.488 49.8072 167.394 49.4392 167.394 49.0286C167.394 48.6179 167.488 48.2499 167.674 47.9246C167.861 47.5992 168.117 47.3459 168.442 47.1646C168.768 46.9832 169.133 46.8926 169.538 46.8926C169.944 46.8926 170.309 46.9832 170.634 47.1646C170.96 47.3459 171.213 47.5992 171.394 47.9246C171.581 48.2499 171.674 48.6179 171.674 49.0286C171.674 49.4392 171.581 49.8072 171.394 50.1326C171.213 50.4579 170.96 50.7139 170.634 50.9006C170.309 51.0819
 169.944 51.1726 169.538 51.1726ZM169.538 50.6686C169.837 50.6686 170.104 50.6019 170.338 50.4686C170.578 50.3299 170.765 50.1352 170.898 49.8846C171.032 49.6339 171.098 49.3486 171.098 49.0286C171.098 48.7086 171.032 48.4232 170.898 48.1726C170.765 47.9219 170.578 47.7299 170.338 47.5966C170.104 47.4579 169.837 47.3886 169.538 47.3886C169.24 47.3886 168.97 47.4579 168.73 47.5966C168.496 47.7299 168.309 47.9219 168.17 48.1726C168.037 48.4232 167.97 48.7086 167.97 49.0286C167.97 49.3486 168.037 49.6339 168.17 49.8846C168.309 50.1352 168.496 50.3299 168.73 50.4686C168.97 50.6019 169.24 50.6686 169.538 50.6686ZM175.568 48.9566C176.139 49.0899 176.424 49.4339 176.424 49.9886C176.424 50.3566 176.288 50.6392 176.016 50.8366C175.744 51.0339 175.339 51.1326 174.8 51.1326H172.888V46.9246H174.744C175.224 46.9246 175.6 47.0179 175.872 47.2046C176.144 47.3912 176.28 47.6579 176.28 48.0046C176.28 48.2339 176.216 48.4312 176.088 48.5966C175.966 48.7566 175.792 48.8766 175.568 48.9566ZM173.44 48.7966H174.704C175.03 48.7966 175.278 48.7352 175.448 48.6126C175.624 48.4899 175.712 48.3112 175.712 48.0766C175.712 47.8419 175.624 47.6659 175.448 47.5486C175.278 47.4312 175.03 47.3726 174.704 47.3726H173.44V48.7966ZM174.776 50.6846C175.139 50.6846 175.411 50.6259 175.592 50.5086C175.774 50.3912 175.864 50.2072 175.864 49.9566C175.864 49.7059 175.782 49.5219 175.616 49.4046C175.451 49.2819 175.19 49.2206 174.832 49.2206H173.44V50.6846H174.776ZM182.529 48.9566C183.1 49.0899 183.385 49.4339 183.385 49.9886C183.385 50.3566 183.249 50.6392 182.977 50.8366C182.705 51.0339 182.3 51.1326 181.761 51.1326H179.849V46.9246H181.705C182.185 46.9246 182.561 47.0179 182.833 47.2046C183.105 47.3912 183.241 47.6579 183.241 48.0046C183.241 48.2339 183.177 48.4312 183.049 48.5966C182.927 48.7566 182.753 48.8766 182.529 48.9566ZM180.401 48.7966H181.665C181.991 48.7966 182.239 48.7352 182.409 48.6126C182.585 48.4899 182.673 48.3112 182.673 48.0766C182.673 47.8419 182.585 47.6659 182.409 47.5486C182.239 47.4312 181.991 47.3726 181.665 47.3726H180.401V48.7966ZM181.737 50.6846C182.1 50.6846 182.372 50.6259 182.553 50.5086C182.735 50.3912 182.825 50.2072 182.825 49.9566C182.825 49.7059 182.743 49.5219 182.577 49.4046C182.412 49.2819 182.151 49.2206 181.793 49.2206H180.401V50.6846H181.737ZM189.786 47.4286H187.378V51.1326H186.81V46.9246H189.786V47.4286ZM192.148 51.1726C191.742 51.1726 191.377 51.0819 191.052 50.9006C190.726 50.7139 190.47 50.4579 190.284 50.1326C190.097 49.8072 190.004 49.4392 190.004 49.0286C190.004 48.6179 190.097 48.2499 190.284 47.9246C190.47 47.5992 190.726 47.3459 191.052 47.1646C191.377 46.9832 191.742 46.8926 192.148 46.8926C192.553 46.8926 192.918 46.9832 193.244 47.1646C193.569 47.3459 193.822 47.5992 194.004 47.9246C194.19 48.2499 194.284 48.6179 194.284 49.0286C194.284 49.4392 194.19 49.8072 194.004 50.1326C193.822 50.4579 193.569 50.7139 193.244 50.9006C192.918 51.0819 192.553 51.1726 192.148 51.1726ZM192.148 50.6686C192.446 50.6686 192.713 50.6019 192.948 50.4686C193.188 50.3299 193.374 50.1352 193.508 49.8846C193.641 49.6339 193.708 49.3486 193.708 49.0286C193.708 48.7086 193.641 48.4232 193.508 48.1726C193.374 47.9219 193.188 47.7299 192.948 47.5966C192.713 47.4579 192.446 47.3886 192.148 47.3886C191.849 47.3886 191.58 47.4579 191.34 47.5966C191.105 47.7299 190.918 47.9219 190.78 48.1726C190.646 48.4232 190.58 48.7086 190.58 49.0286C190.58 49.3486 190.646 49.6339 190.78 49.8846C190.918 50.1352 191.105 50.3299 191.34 50.4686C191.58 50.6019 191.849 50.6686 192.148 50.6686ZM197.666 46.8926C198.06 46.8926 198.418 46.9832 198.738 47.1646C199.058 47.3406 199.308 47.5912 199.49 47.9166C199.671 48.2419 199.762 48.6126 199.762 49.0286C199.762 49.4499 199.671 49.8232 199.49 50.1486C199.308 50.4739 199.058 50.7272 198.738 50.9086C198.423 51.0846 198.066 51.1726 197.666 51.1726C197.324 51.1726 197.015 51.1032 196.738 50.9646C196.466 50.8206 196.242 50.6126 196.066 50.3406V52.6846H195.498V46.9246H196.042V47.7566C196.212 47.4792 196.436 47.2659 196.714 47.1166C196.996 46.9672 197.314 46.8926 197.666 46.8926ZM197.626 50.6686C197.919 50.6686 198.186 50.6019 198.426 50.4686C198.666 50.3299 198.852 50.1352 198.986 49.8846C199.124 49.6339 199.194 49.3486 199.194 49.0286C199.194 48.7086 199.124 48.4259 198.986 48.1806C198.852 47.9299 198.666 47.7352 198.426 47.5966C198.186 47.4579 197.919 47.3886 197.626 47.3886C197.327 47.3886 197.058 47.4579 196.818 47.5966C196.583 47.7352 196.396 47.9299 196.258 48.1806C196.124 48.4259 196.058 48.7086 196.058 49.0286C196.058 49.3486 196.124 49.6339 196.258 49.8846C196.396 50.1352 196.583 50.3299 196.818 50.4686C197.058 50.6019 197.327 50.6686 197.626 50.6686ZM202.75 48.4126C203.278 48.4179 203.681 48.5352 203.958 48.7646C204.235 48.9939 204.374 49.3246 204.374 49.7566C204.374 50.2046 204.225 50.5486 203.926 50.7886C203.627 51.0286 203.201 51.1459 202.646 51.1406L200.982 51.1326V46.9246H201.55V48.3966L202.75 48.4126ZM205.078 46.9246H205.646V51.1326H205.078V46.9246ZM202.614 50.7086C203.003 50.7139 203.297 50.6366 203.494 50.4766C203.697 50.3112 203.798 50.0712 203.798 49.7566C203.798 49.4472 203.699 49.2179 203.502 49.0686C203.305 48.9192 203.009 48.8419 202.614 48.8366L201.55 48.8206V50.6926L202.614 50.7086Z" fill="black"/>
<defs>
<clipPath id="clip0_2_1032">
<rect width="61.8683" height="61.8683" fill="black"/>
</clipPath>
</defs>
</symbol>

<symbol id="logo-part" width="35" height="18" viewBox="0 0 35 18" fill="none" xmlns="http://www.w3.org/2000/svg">
<path d="M11.7825 17.1768L17.2395 11.447L23.4468 17.1768H34.0878L17.1713 0.601318L0.391113 17.1768H11.7825Z" fill="#2D383F"/>
</symbol>

<symbol id="insta" width="13" height="13" viewBox="0 0 13 13" fill="none" xmlns="http://www.w3.org/2000/svg">
<path d="M9.41239 0H3.58745C1.60933 0 0 1.60941 0 3.58753V9.41247C0 11.3907 1.60933 13 3.58745 13H9.41239C11.3907 13 13 11.3906 13 9.41247V3.58753C13.0001 1.60941 11.3907 0 9.41239 0ZM11.8467 9.41247C11.8467 10.7547 10.7547 11.8466 9.41247 11.8466H3.58745C2.24533 11.8467 1.15342 10.7547 1.15342 9.41247V3.58753C1.15342 2.24541 2.24533 1.15342 3.58745 1.15342H9.41239C10.7546 1.15342 11.8466 2.24541 11.8466 3.58753L11.8467 9.41247Z" fill="white"/>
<path d="M6.50006 3.15033C4.65297 3.15033 3.1503 4.65301 3.1503 6.50011C3.1503 8.34713 4.65297 9.84973 6.50006 9.84973C8.34715 9.84973 9.84982 8.34713 9.84982 6.50011C9.84982 4.65301 8.34715 3.15033 6.50006 3.15033ZM6.50006 8.69623C5.28905 8.69623 4.30372 7.71105 4.30372 6.50003C4.30372 5.28893 5.28897 4.30368 6.50006 4.30368C7.71115 4.30368 8.69641 5.28893 8.69641 6.50003C8.69641 7.71105 7.71108 8.69623 6.50006 8.69623Z" fill="white"/>
<path d="M9.99027 2.1724C9.76803 2.1724 9.54971 2.26236 9.39276 2.41999C9.23504 2.57686 9.14437 2.79524 9.14437 3.01823C9.14437 3.24053 9.23512 3.45883 9.39276 3.61646C9.54963 3.77333 9.76803 3.86406 9.99027 3.86406C10.2133 3.86406 10.4309 3.77333 10.5885 3.61646C10.7462 3.45883 10.8362 3.24045 10.8362 3.01823C10.8362 2.79524 10.7462 2.57686 10.5885 2.41999C10.4317 2.26236 10.2133 2.1724 9.99027 2.1724Z" fill="white"/>
</symbol>

<symbol id="arrow-l" width="14" height="8" viewBox="0 0 14 8" fill="none" xmlns="http://www.w3.org/2000/svg">
<path d="M0.646446 4.35355C0.451184 4.15829 0.451184 3.84171 0.646446 3.64645L3.82843 0.464466C4.02369 0.269204 4.34027 0.269204 4.53553 0.464466C4.7308 0.659728 4.7308 0.976311 4.53553 1.17157L1.70711 4L4.53553 6.82843C4.7308 7.02369 4.7308 7.34027 4.53553 7.53553C4.34027 7.7308 4.02369 7.7308 3.82843 7.53553L0.646446 4.35355ZM14 4.5H1V3.5H14V4.5Z" fill="white"/>
</symbol>

<symbol id="arrow-r" width="14" height="8" viewBox="0 0 14 8" fill="none" xmlns="http://www.w3.org/2000/svg">
<path d="M13.3536 4.35355C13.5488 4.15829 13.5488 3.84171 13.3536 3.64645L10.1716 0.464466C9.97631 0.269204 9.65973 0.269204 9.46447 0.464466C9.2692 0.659728 9.2692 0.976311 9.46447 1.17157L12.2929 4L9.46447 6.82843C9.2692 7.02369 9.2692 7.34027 9.46447 7.53553C9.65973 7.7308 9.97631 7.7308 10.1716 7.53553L13.3536 4.35355ZM0 4.5H13V3.5H0V4.5Z" fill="white"/>
</symbol>

<symbol id="vk" width="12" height="8" viewBox="0 0 12 8" fill="none" xmlns="http://www.w3.org/2000/svg">
<path d="M11.8931 6.68356C11.8608 6.62955 11.6613 6.19602 10.7012 5.30495C9.69614 4.37188 9.83115 4.5234 11.0417 2.91003C11.779 1.92745 12.0738 1.32741 11.9816 1.07089C11.8938 0.82637 11.3515 0.890875 11.3515 0.890875L9.54838 0.901376C9.54838 0.901376 9.41487 0.883374 9.31511 0.942629C9.21835 1.00113 9.1561 1.13614 9.1561 1.13614C9.1561 1.13614 8.87033 1.8967 8.4893 2.54325C7.68599 3.9076 7.36421 3.9796 7.23295 3.89485C6.92768 3.69758 7.00419 3.10129 7.00419 2.67826C7.00419 1.35591 7.20445 0.804619 6.61341 0.662108C6.41689 0.614854 6.27288 0.583352 5.7711 0.578102C5.12755 0.571351 4.58226 0.580352 4.27398 0.731113C4.06847 0.831621 3.91021 1.05589 4.00696 1.06864C4.12622 1.08439 4.39624 1.14139 4.5395 1.33641C4.72477 1.58768 4.71802 2.15322 4.71802 2.15322C4.71802 2.15322 4.82453 3.70958 4.46975 3.9031C4.22598 4.03586 3.89221 3.76509 3.1759 2.52675C2.80913 1.89295 2.53161 1.19165 2.53161 1.19165C2.53161 1.19165 2.47835 1.06114 2.38309 0.991383C2.26759 0.906626 2.10557 0.879624 2.10557 0.879624L0.390947 0.890125C0.390947 0.890125 0.133677 0.897626 0.0391703 1.00938C-0.0448359 1.10914 0.0324198 1.31466 0.0324198 1.31466C0.0324198 1.31466 1.37502 4.45514 2.89463 6.03851C4.28899 7.48986 5.8716 7.39461 5.8716 7.39461H6.58866C6.58866 7.39461 6.80542 7.37061 6.91568 7.25135C7.01769 7.14184 7.01394 6.93632 7.01394 6.93632C7.01394 6.93632 6.99969 5.974 7.44672 5.83224C7.887 5.69273 8.45255 6.76231 9.05184 7.17409C9.50487 7.48536 9.84915 7.41711 9.84915 7.41711L11.452 7.39461C11.452 7.39461 12.2906 7.34285 11.8931 6.68356Z" fill="white"/>
</symbol>

<symbol id="vk2" width="14" height="8" viewBox="0 0 14 8" fill="none" xmlns="http://www.w3.org/2000/svg">
<path d="M13.1294 6.88535C13.1139 6.85288 13.0995 6.82596 13.0861 6.80439C12.8648 6.41569 12.4419 5.9386 11.8175 5.37297L11.8044 5.36002L11.7978 5.35367L11.7911 5.34716H11.7844C11.501 5.08377 11.3216 4.90668 11.2465 4.81601C11.109 4.64329 11.0782 4.46846 11.1533 4.29132C11.2064 4.15749 11.4058 3.87484 11.7511 3.44301C11.9327 3.21415 12.0765 3.03072 12.1828 2.89253C12.9488 1.89942 13.281 1.26481 13.1791 0.988446L13.1395 0.923865C13.1129 0.884984 13.0443 0.849415 12.9337 0.816977C12.8229 0.784607 12.6812 0.779253 12.5085 0.800826L10.5957 0.81371C10.5647 0.803003 10.5205 0.804001 10.4628 0.816977C10.4053 0.829952 10.3765 0.836463 10.3765 0.836463L10.3432 0.852682L10.3167 0.872167C10.2946 0.885052 10.2702 0.907714 10.2437 0.940107C10.2172 0.972386 10.1951 1.01027 10.1774 1.05344C9.96915 1.57587 9.73238 2.06161 9.46664 2.51062C9.3028 2.77836 9.15233 3.0104 9.01492 3.20686C8.87769 3.40326 8.76256 3.54797 8.66964 3.64072C8.57659 3.73357 8.49261 3.80795 8.41719 3.86414C8.34189 3.92035 8.28441 3.9441 8.2446 3.93541C8.20471 3.92672 8.16714 3.9181 8.13157 3.90948C8.06962 3.8706 8.01979 3.81772 7.98222 3.75081C7.94448 3.68389 7.91908 3.59966 7.9058 3.4982C7.89258 3.39666 7.88477 3.30933 7.88253 3.2359C7.88046 3.16256 7.88142 3.05883 7.88591 2.92499C7.89051 2.79109 7.89258 2.70049 7.89258 2.65299C7.89258 2.48889 7.89586 2.3108 7.90245 2.11866C7.90915 1.92653 7.91457 1.77429 7.9191 1.66214C7.92362 1.54988 7.92571 1.4311 7.92571 1.30589C7.92571 1.18067 7.91789 1.08247 7.90245 1.0112C7.88719 0.940015 7.86376 0.87092 7.83289 0.803934C7.80183 0.737015 7.75638 0.68525 7.69673 0.648502C7.63697 0.611799 7.56266 0.582672 7.47424 0.561032C7.23954 0.509244 6.94068 0.481229 6.57752 0.476874C5.75397 0.468254 5.22481 0.52011 4.99013 0.632373C4.89714 0.679806 4.813 0.744614 4.73777 0.826595C4.65805 0.921619 4.64693 0.973475 4.70448 0.982004C4.97019 1.02082 5.1583 1.11366 5.26901 1.26045L5.3089 1.33824C5.33994 1.39436 5.37092 1.49371 5.40193 1.63617C5.4329 1.77863 5.45288 1.93621 5.46167 2.10884C5.48377 2.42408 5.48377 2.69393 5.46167 2.91841C5.4395 3.14299 5.41857 3.31781 5.39858 3.44303C5.3786 3.56824 5.34873 3.66971 5.3089 3.7474C5.26901 3.82512 5.24246 3.87262 5.22916 3.88986C5.21587 3.9071 5.2048 3.91797 5.19601 3.92223C5.13845 3.94374 5.0786 3.95469 5.01665 3.95469C4.9546 3.95469 4.87937 3.92443 4.79083 3.86396C4.70232 3.80348 4.61045 3.72041 4.51523 3.61461C4.42002 3.50879 4.31263 3.36091 4.19304 3.17095C4.07354 2.981 3.94954 2.75649 3.82113 2.49744L3.71489 2.30957C3.64847 2.18871 3.55774 2.01273 3.44261 1.78178C3.32741 1.55074 3.22559 1.32726 3.13708 1.11137C3.10169 1.0207 3.04854 0.951675 2.9777 0.904175L2.94446 0.884689C2.92236 0.867449 2.88688 0.849143 2.83821 0.829634C2.78948 0.810149 2.73862 0.796175 2.68544 0.787578L0.865588 0.800463C0.679622 0.800463 0.553442 0.841544 0.487003 0.923592L0.460413 0.962405C0.447129 0.984023 0.44043 1.01855 0.44043 1.06607C0.44043 1.11357 0.453713 1.17187 0.480303 1.2409C0.745968 1.84974 1.03487 2.43692 1.34702 3.00253C1.65917 3.56813 1.93041 4.02374 2.1606 4.36895C2.39084 4.71441 2.62552 5.04044 2.86464 5.34691C3.10376 5.65348 3.26205 5.84995 3.33949 5.93626C3.41702 6.02274 3.47793 6.08739 3.5222 6.13055L3.68827 6.28596C3.79454 6.38961 3.95059 6.51373 4.15649 6.65834C4.36244 6.80305 4.59044 6.9455 4.84062 7.08594C5.09083 7.22615 5.38193 7.34057 5.71406 7.42906C6.04614 7.51764 6.36936 7.55319 6.68376 7.53604H7.44758C7.60249 7.523 7.71985 7.4755 7.79962 7.39352L7.82605 7.36105C7.84382 7.33529 7.86046 7.29525 7.87581 7.24137C7.89135 7.18741 7.89907 7.12795 7.89907 7.06328C7.89454 6.87766 7.90903 6.71036 7.94216 6.56142C7.97526 6.41252 8.01299 6.30025 8.05519 6.22465C8.09737 6.14911 8.14497 6.08537 8.19794 6.03369C8.25102 5.9819 8.28885 5.95053 8.31104 5.93973C8.3331 5.92887 8.35071 5.9215 8.36399 5.91707C8.47025 5.88255 8.59532 5.91598 8.73936 6.01754C8.88329 6.11901 9.01829 6.24429 9.14456 6.39319C9.27076 6.54223 9.42239 6.70943 9.59947 6.89505C9.77667 7.08075 9.9316 7.21878 10.0644 7.30958L10.1972 7.3873C10.2859 7.43916 10.401 7.48666 10.5427 7.52982C10.6842 7.57297 10.8081 7.58377 10.9145 7.56219L12.6148 7.53633C12.7829 7.53633 12.9138 7.50918 13.0066 7.45531C13.0996 7.40134 13.1549 7.34189 13.1727 7.27721C13.1905 7.21247 13.1914 7.13902 13.1761 7.05691C13.1603 6.97499 13.1448 6.91772 13.1294 6.88535Z" fill="#494949"/>
</symbol>

<symbol id="vk-back" width="22" height="22" viewBox="0 0 22 22" fill="none" xmlns="http://www.w3.org/2000/svg">
<rect opacity="0.432" width="21.3043" height="21.3043" fill="#0266C1"/>
</symbol>

<symbol id="fb" width="6" height="11" viewBox="0 0 6 11" fill="none" xmlns="http://www.w3.org/2000/svg">
<path d="M3.66572 3.98786V2.65633C3.66572 2.28883 3.96398 1.99057 4.33148 1.99057H4.99724V0.326172H3.66572C2.56255 0.326172 1.66844 1.22029 1.66844 2.32345V3.98786H0.336914V5.65226H1.66844V10.9783H3.66572V5.65226H4.99724L5.663 3.98786H3.66572Z" fill="white"/>
</symbol>

<symbol id="fb2" width="8" height="15" viewBox="0 0 8 15" fill="none" xmlns="http://www.w3.org/2000/svg">
<path d="M4.98457 4.94098V3.17196C4.98457 2.68371 5.38083 2.28745 5.86908 2.28745H6.75359V0.0761719H4.98457C3.51893 0.0761719 2.33103 1.26407 2.33103 2.7297V4.94098H0.562012V7.15226H2.33103V14.2283H4.98457V7.15226H6.75359L7.6381 4.94098H4.98457Z" fill="#2D383F"/>
</symbol>

<symbol id="insta2" width="18" height="18" viewBox="0 0 18 18" fill="none" xmlns="http://www.w3.org/2000/svg">
<path d="M13.1192 0.314209H5.3804C2.75235 0.314209 0.614258 2.45242 0.614258 5.0805V12.8193C0.614258 15.4475 2.75235 17.5856 5.3804 17.5856H13.1192C15.7474 17.5856 17.8855 15.4474 17.8855 12.8193V5.0805C17.8856 2.45242 15.7474 0.314209 13.1192 0.314209ZM16.3532 12.8193C16.3532 14.6026 14.9025 16.0532 13.1193 16.0532H5.3804C3.59731 16.0533 2.14665 14.6026 2.14665 12.8193V5.0805C2.14665 3.29739 3.59731 1.84661 5.3804 1.84661H13.1192C14.9024 1.84661 16.3531 3.29739 16.3531 5.0805L16.3532 12.8193Z" fill="#2D383F"/>
<path d="M9.24997 4.49964C6.79601 4.49964 4.79961 6.49606 4.79961 8.95006C4.79961 11.404 6.79601 13.4003 9.24997 13.4003C11.7039 13.4003 13.7003 11.404 13.7003 8.95006C13.7003 6.49606 11.7039 4.49964 9.24997 4.49964ZM9.24997 11.8678C7.64107 11.8678 6.332 10.5589 6.332 8.94996C6.332 7.34093 7.64097 6.03195 9.24997 6.03195C10.859 6.03195 12.1679 7.34093 12.1679 8.94996C12.1679 10.5589 10.8589 11.8678 9.24997 11.8678Z" fill="#2D383F"/>
<path d="M13.8869 3.20039C13.5917 3.20039 13.3016 3.31992 13.0931 3.52935C12.8836 3.73775 12.7631 4.02788 12.7631 4.32414C12.7631 4.61948 12.8837 4.90951 13.0931 5.11894C13.3015 5.32734 13.5917 5.44789 13.8869 5.44789C14.1832 5.44789 14.4723 5.32734 14.6818 5.11894C14.8912 4.90951 15.0107 4.61938 15.0107 4.32414C15.0107 4.02788 14.8912 3.73775 14.6818 3.52935C14.4733 3.31992 14.1832 3.20039 13.8869 3.20039Z" fill="#2D383F"/>
</symbol>

<symbol id="location" width="9" height="12" viewBox="0 0 9 12" fill="none" xmlns="http://www.w3.org/2000/svg">
<path d="M4.49981 0C2.01874 0 0 1.98191 0 4.41796C0 5.05338 0.132472 5.66006 0.39354 6.2213C1.51862 8.63833 3.67571 11.1902 4.31017 11.9146C4.35771 11.9688 4.42701 12 4.49994 12C4.57287 12 4.64217 11.9688 4.6897 11.9146C5.32392 11.1903 7.48101 8.63857 8.60646 6.2213C8.86765 5.66006 9 5.05338 9 4.41796C8.99975 1.98191 6.98101 0 4.49981 0ZM4.49981 6.71267C3.21099 6.71267 2.16234 5.68315 2.16234 4.41784C2.16234 3.15241 3.21099 2.12289 4.49981 2.12289C5.78864 2.12289 6.83728 3.15241 6.83728 4.41784C6.83741 5.68315 5.78876 6.71267 4.49981 6.71267Z" fill="white"/>
</symbol>

<symbol id="days" width="23" height="22" viewBox="0 0 23 22" fill="none" xmlns="http://www.w3.org/2000/svg">
<path d="M15.655 7.10055C14.6779 6.11113 13.2984 5.47092 11.8039 5.47092C10.3095 5.47092 8.93 6.08203 7.95286 7.10055C6.97571 8.08996 6.34345 9.48679 6.34345 11C6.34345 12.5132 6.97571 13.9101 7.95286 14.8995C8.93 15.8889 10.3095 16.5291 11.8039 16.5291C13.2984 16.5291 14.6779 15.918 15.655 14.8995C16.6322 13.9101 17.2645 12.5132 17.2645 11C17.2645 9.48679 16.6609 8.08996 15.655 7.10055ZM14.6204 13.8519C13.9019 14.5794 12.896 15.0159 11.8039 15.0159C10.7118 15.0159 9.70597 14.5794 8.98748 13.8519C8.26899 13.1243 7.8379 12.1058 7.8379 11C7.8379 9.89419 8.26899 8.87568 8.98748 8.14817C9.70597 7.42065 10.7118 6.98415 11.8039 6.98415C12.896 6.98415 13.9019 7.42065 14.6204 8.14817C15.3389 8.87568 15.77 9.89419 15.77 11C15.77 12.1058 15.3389 13.1243 14.6204 13.8519Z" fill="white"/>
<path d="M21.9202 10.2434H19.7073C19.305 10.2434 18.9601 10.5926 18.9601 11C18.9601 11.4074 19.305 11.7566 19.7073 11.7566H21.9202C22.3226 11.7566 22.6675 11.4074 22.6675 11C22.6675 10.5926 22.3226 10.2434 21.9202 10.2434Z" fill="white"/>
<path d="M11.8039 18.246C11.4016 18.246 11.0567 18.5952 11.0567 19.0026V21.2434C11.0567 21.6508 11.4016 22 11.8039 22C12.2063 22 12.5512 21.6508 12.5512 21.2434V19.0026C12.5512 18.5952 12.2063 18.246 11.8039 18.246Z" fill="white"/>
<path d="M19.4774 17.7222L17.8967 16.1216C17.6381 15.8306 17.1495 15.8306 16.8621 16.1216C16.5747 16.4126 16.5747 16.8782 16.8621 17.1693L18.4428 18.7698C18.7302 19.0608 19.19 19.0608 19.4774 18.7698C19.7648 18.4788 19.7648 18.0132 19.4774 17.7222Z" fill="white"/>
<path d="M11.8039 0C11.4016 0 11.0567 0.349205 11.0567 0.756611V2.99735C11.0567 3.40475 11.4016 3.75396 11.8039 3.75396C12.2063 3.75396 12.5512 3.40475 12.5512 2.99735V0.756611C12.5512 0.349205 12.2063 0 11.8039 0Z" fill="white"/>
<path d="M19.5061 3.23018C19.2187 2.93918 18.7589 2.93918 18.4715 3.23018L16.8908 4.8307C16.6034 5.12171 16.6034 5.58732 16.8908 5.87832C17.1495 6.16932 17.6381 6.16932 17.9255 5.87832L19.5061 4.2778C19.7935 3.98679 19.7935 3.52118 19.5061 3.23018Z" fill="white"/>
<path d="M3.9006 10.2434H1.68766C1.2853 10.2434 0.94043 10.5926 0.94043 11C0.94043 11.4074 1.25656 11.7566 1.68766 11.7566H3.9006C4.30295 11.7566 4.64782 11.4074 4.64782 11C4.64782 10.5926 4.30295 10.2434 3.9006 10.2434Z" fill="white"/>
<path d="M6.71707 16.1216C6.45841 15.8306 5.96984 15.8306 5.68245 16.1216L4.10177 17.7222C3.81438 18.0132 3.81438 18.4788 4.10177 18.7698C4.38917 19.0608 4.849 19.0608 5.13639 18.7698L6.71707 17.1693C7.00446 16.8782 7.00446 16.4126 6.71707 16.1216Z" fill="white"/>
<path d="M6.71707 4.8307L5.13639 3.23018C4.849 2.93918 4.38917 2.93918 4.10177 3.23018C3.81438 3.52118 3.81438 3.98679 4.10177 4.2778L5.68245 5.87832C5.96984 6.16932 6.42967 6.16932 6.71707 5.87832C7.00446 5.58732 7.00446 5.12171 6.71707 4.8307Z" fill="white"/>
</symbol>

<symbol id="nights" width="20" height="20" viewBox="0 0 20 20" fill="none" xmlns="http://www.w3.org/2000/svg">
<path d="M19.5272 11.382C19.3228 11.3307 19.1183 11.382 18.9394 11.5103C18.2748 12.0745 17.5081 12.5362 16.6646 12.844C15.8723 13.1518 15.0033 13.3057 14.0831 13.3057C12.0128 13.3057 10.1215 12.4593 8.76681 11.0999C7.41217 9.74052 6.56872 7.84251 6.56872 5.76497C6.56872 4.89291 6.72207 4.0465 6.97767 3.27704C7.25882 2.45628 7.66777 1.71247 8.20451 1.07125C8.43454 0.789119 8.38343 0.378739 8.10227 0.147901C7.92336 0.0196574 7.71888 -0.0316401 7.51441 0.0196573C5.34188 0.609578 3.4505 1.91766 2.09586 3.66177C0.792336 5.38024 0 7.50908 0 9.84311C0 12.6388 1.12461 15.178 2.96487 17.0247C4.80513 18.8715 7.3355 20 10.1215 20C12.4729 20 14.6454 19.1792 16.3835 17.8199C18.147 16.4348 19.425 14.4599 19.9618 12.2028C20.0895 11.8181 19.8851 11.459 19.5272 11.382ZM15.6167 16.7426C14.1342 17.9225 12.2429 18.6406 10.1726 18.6406C7.74444 18.6406 5.54635 17.6403 3.96168 16.0501C2.37701 14.4599 1.3802 12.2541 1.3802 9.81746C1.3802 7.79122 2.04474 5.94451 3.1949 4.45688C3.98724 3.43094 4.98405 2.58453 6.13421 1.99461C6.00642 2.27674 5.87862 2.55888 5.77638 2.86666C5.44411 3.79002 5.29076 4.76467 5.29076 5.79062C5.29076 8.22724 6.28757 10.4587 7.87224 12.0489C9.45691 13.6391 11.6806 14.6394 14.1087 14.6394C15.1822 14.6394 16.2045 14.4599 17.1502 14.1008C17.4825 13.9726 17.8148 13.8443 18.1215 13.6904C17.5081 14.8703 16.6646 15.9219 15.6167 16.7426Z" fill="white"/>
</symbol>

<symbol id="AbsStar" width="15" height="14" viewBox="0 0 15 14" fill="none" xmlns="http://www.w3.org/2000/svg">
<path d="M7.5 11.0412L12.135 13.65L10.9087 8.72975L15 5.42084L9.60676 4.98892L7.5 0.350037L5.39326 4.98892L0 5.42084L4.09126 8.72975L2.865 13.65L7.5 11.0412Z" fill="white"/>
</symbol>

<symbol id="Star" width="15" height="14" viewBox="0 0 15 14" fill="none" xmlns="http://www.w3.org/2000/svg">
<path d="M7.74525 10.6054L7.5 10.4674L7.25475 10.6054L3.63071 12.6453L4.57642 8.85066L4.6535 8.54141L4.40569 8.34098L1.28779 5.81931L5.43318 5.48733L5.72674 5.46382L5.84852 5.19567L7.5 1.55921L9.15151 5.19568L9.27329 5.46382L9.56685 5.48733L13.7122 5.81931L10.5943 8.34098L10.3465 8.54141L10.4236 8.85066L11.3693 12.6453L7.74525 10.6054Z" stroke="#F3F3F3"/>
</symbol>

<symbol id="arrow" width="9" height="14" viewBox="0 0 9 14" fill="none" xmlns="http://www.w3.org/2000/svg">
<path d="M1 13L7 7L0.999999 1" stroke="#2D383F" stroke-width="2"/>
</symbol>

<symbol id="sensei-vk" width="14" height="8" viewBox="0 0 14 8" fill="none" xmlns="http://www.w3.org/2000/svg">
<path d="M13.1294 6.88535C13.1139 6.85288 13.0995 6.82596 13.0861 6.80439C12.8648 6.41569 12.4419 5.9386 11.8175 5.37297L11.8044 5.36002L11.7978 5.35367L11.7911 5.34716H11.7844C11.501 5.08377 11.3216 4.90668 11.2465 4.81601C11.109 4.64329 11.0782 4.46846 11.1533 4.29132C11.2064 4.15749 11.4058 3.87484 11.7511 3.44301C11.9327 3.21415 12.0765 3.03072 12.1828 2.89253C12.9488 1.89942 13.281 1.26481 13.1791 0.988446L13.1395 0.923865C13.1129 0.884984 13.0443 0.849415 12.9337 0.816977C12.8229 0.784607 12.6812 0.779253 12.5085 0.800826L10.5957 0.81371C10.5647 0.803003 10.5205 0.804001 10.4628 0.816977C10.4053 0.829952 10.3765 0.836463 10.3765 0.836463L10.3432 0.852682L10.3167 0.872167C10.2946 0.885052 10.2702 0.907714 10.2437 0.940107C10.2172 0.972386 10.1951 1.01027 10.1774 1.05344C9.96915 1.57587 9.73238 2.06161 9.46664 2.51062C9.3028 2.77836 9.15233 3.0104 9.01492 3.20686C8.87769 3.40326 8.76256 3.54797 8.66964 3.64072C8.57659 3.73357 8.49261 3.80795 8.41719 3.86414C8.34189 3.92035 8.28441 3.9441 8.2446 3.93541C8.20471 3.92672 8.16714 3.9181 8.13157 3.90948C8.06962 3.8706 8.01979 3.81772 7.98222 3.75081C7.94448 3.68389 7.91908 3.59966 7.9058 3.4982C7.89258 3.39666 7.88477 3.30933 7.88253 3.2359C7.88046 3.16256 7.88142 3.05883 7.88591 2.92499C7.89051 2.79109 7.89258 2.70049 7.89258 2.65299C7.89258 2.48889 7.89586 2.3108 7.90245 2.11866C7.90915 1.92653 7.91457 1.77429 7.9191 1.66214C7.92362 1.54988 7.92571 1.4311 7.92571 1.30589C7.92571 1.18067 7.91789 1.08247 7.90245 1.0112C7.88719 0.940015 7.86376 0.87092 7.83289 0.803934C7.80183 0.737015 7.75638 0.68525 7.69673 0.648502C7.63697 0.611799 7.56266 0.582672 7.47424 0.561032C7.23954 0.509244 6.94068 0.481229 6.57752 0.476874C5.75397 0.468254 5.22481 0.52011 4.99013 0.632373C4.89714 0.679806 4.813 0.744614 4.73777 0.826595C4.65805 0.921619 4.64693 0.973475 4.70448 0.982004C4.97019 1.02082 5.1583 1.11366 5.26901 1.26045L5.3089 1.33824C5.33994 1.39436 5.37092 1.49371 5.40193 1.63617C5.4329 1.77863 5.45288 1.93621 5.46167 2.10884C5.48377 2.42408 5.48377 2.69393 5.46167 2.91841C5.4395 3.14299 5.41857 3.31781 5.39858 3.44303C5.3786 3.56824 5.34873 3.66971 5.3089 3.7474C5.26901 3.82512 5.24246 3.87262 5.22916 3.88986C5.21587 3.9071 5.2048 3.91797 5.19601 3.92223C5.13845 3.94374 5.0786 3.95469 5.01665 3.95469C4.9546 3.95469 4.87937 3.92443 4.79083 3.86396C4.70232 3.80348 4.61045 3.72041 4.51523 3.61461C4.42002 3.50879 4.31263 3.36091 4.19304 3.17095C4.07354 2.981 3.94954 2.75649 3.82113 2.49744L3.71489 2.30957C3.64847 2.18871 3.55774 2.01273 3.44261 1.78178C3.32741 1.55074 3.22559 1.32726 3.13708 1.11137C3.10169 1.0207 3.04854 0.951675 2.9777 0.904175L2.94446 0.884689C2.92236 0.867449 2.88688 0.849143 2.83821 0.829634C2.78948 0.810149 2.73862 0.796175 2.68544 0.787578L0.865588 0.800463C0.679622 0.800463 0.553442 0.841544 0.487003 0.923592L0.460413 0.962405C0.447129 0.984023 0.44043 1.01855 0.44043 1.06607C0.44043 1.11357 0.453713 1.17187 0.480303 1.2409C0.745968 1.84974 1.03487 2.43692 1.34702 3.00253C1.65917 3.56813 1.93041 4.02374 2.1606 4.36895C2.39084 4.71441 2.62552 5.04044 2.86464 5.34691C3.10376 5.65348 3.26205 5.84995 3.33949 5.93626C3.41702 6.02274 3.47793 6.08739 3.5222 6.13055L3.68827 6.28596C3.79454 6.38961 3.95059 6.51373 4.15649 6.65834C4.36244 6.80305 4.59044 6.9455 4.84062 7.08594C5.09083 7.22615 5.38193 7.34057 5.71406 7.42906C6.04614 7.51764 6.36936 7.55319 6.68376 7.53604H7.44758C7.60249 7.523 7.71985 7.4755 7.79962 7.39352L7.82605 7.36105C7.84382 7.33529 7.86046 7.29525 7.87581 7.24137C7.89135 7.18741 7.89907 7.12795 7.89907 7.06328C7.89454 6.87766 7.90903 6.71036 7.94216 6.56142C7.97526 6.41252 8.01299 6.30025 8.05519 6.22465C8.09737 6.14911 8.14497 6.08537 8.19794 6.03369C8.25102 5.9819 8.28885 5.95053 8.31104 5.93973C8.3331 5.92887 8.35071 5.9215 8.36399 5.91707C8.47025 5.88255 8.59532 5.91598 8.73936 6.01754C8.88329 6.11901 9.01829 6.24429 9.14456 6.39319C9.27076 6.54223 9.42239 6.70943 9.59947 6.89505C9.77667 7.08075 9.9316 7.21878 10.0644 7.30958L10.1972 7.3873C10.2859 7.43916 10.401 7.48666 10.5427 7.52982C10.6842 7.57297 10.8081 7.58377 10.9145 7.56219L12.6148 7.53633C12.7829 7.53633 12.9138 7.50918 13.0066 7.45531C13.0996 7.40134 13.1549 7.34189 13.1727 7.27721C13.1905 7.21247 13.1914 7.13902 13.1761 7.05691C13.1603 6.97499 13.1448 6.91772 13.1294 6.88535Z" fill="#494949"/>
</symbol>

<symbol id="route" width="25" height="25" viewBox="0 0 25 25" fill="none" xmlns="http://www.w3.org/2000/svg">
<path d="M24.1702 22.2803V6.70123C24.1821 6.44571 23.9845 6.22897 23.7291 6.2171C23.6746 6.21456 23.6201 6.22168 23.5681 6.23812V6.26127L21.4841 6.91426C21.7023 6.33016 21.8319 5.71665 21.8685 5.09423C21.8685 2.28077 19.5878 0 16.7743 0C13.9608 0 11.6801 2.28077 11.6801 5.09423C11.7126 5.68754 11.8327 6.27279 12.0367 6.8309L8.5911 5.59902C8.5511 5.5941 8.51069 5.5941 8.47069 5.59902H8.43364C8.37813 5.60001 8.32319 5.61101 8.27155 5.63144L1.12574 8.41011C0.960927 8.47281 0.846018 8.62361 0.829346 8.79913V16.246V24.3967C0.830098 24.6525 1.03804 24.8592 1.29385 24.8585C1.3504 24.8583 1.40644 24.8478 1.45918 24.8274L8.44291 22.1229L16.4084 24.9756C16.5046 25.0081 16.6087 25.0081 16.7048 24.9756L23.846 22.7434C24.0467 22.6806 24.1798 22.4904 24.1702 22.2803ZM16.7743 0.926224C19.0762 0.926224 20.9423 2.79228 20.9423 5.09423C20.9423 6.905 18.2238 11.9066 16.7743 14.3565C15.3247 11.8881 12.6063 6.88184 12.6063 5.09423C12.6063 2.79228 14.4723 0.926224 16.7743 0.926224ZM23.2579 21.9608L17.0244 23.9105V20.3769C17.0244 20.1212 16.817 19.9138 16.5613 19.9138C16.3055 19.9138 16.0981 20.1212 16.0981 20.3769V23.8781L8.90139 21.3032V18.3392C8.90139 18.0835 8.69403 17.8761 8.43828 17.8761C8.18252 17.8761 7.97516 18.0835 7.97516 18.3392V21.3032L1.75557 23.7252V16.5655L4.04334 15.6393C4.28816 15.5652 4.42651 15.3067 4.35241 15.0618C4.27831 14.817 4.01978 14.6787 3.77497 14.7528C3.74938 14.7605 3.72449 14.7705 3.70058 14.7825L1.75551 15.5652V9.11868L7.97511 6.71049V8.09983C7.97511 8.35558 8.18246 8.56294 8.43822 8.56294C8.69397 8.56294 8.90133 8.35558 8.90133 8.09983V6.69197L12.4534 7.96553C13.5925 10.5687 14.9029 13.0936 16.376 15.5235C16.5086 15.7422 16.7934 15.8119 17.0121 15.6793C17.0758 15.6407 17.1292 15.5872 17.1679 15.5235C18.6337 13.1079 19.9394 10.5985 21.0765 8.01184L23.2439 7.33106L23.2578 14.9215L20.9098 15.4911C20.6541 15.5218 20.4716 15.754 20.5023 16.0098C20.533 16.2655 20.7652 16.448 21.021 16.4173C21.0579 16.4218 21.0952 16.4218 21.1321 16.4173L23.2578 15.8986V21.9608H23.2579Z" fill="#2D383F"/>
</symbol>

<symbol id="nike" width="24" height="22" viewBox="0 0 24 22" fill="none" xmlns="http://www.w3.org/2000/svg">
<path d="M23.6583 14.6155C24.404 12.2804 23.7904 9.63006 23.1385 7.79353C23.1342 7.72248 23.1123 7.65361 23.0746 7.59326C22.853 6.99671 22.6484 6.50669 22.4737 6.15302C22.7953 6.02497 23.0075 5.71508 23.0106 5.36898V1.8195C23.0106 1.34881 22.6291 0.967282 22.1584 0.967282H11.6889C11.4536 0.966856 11.2625 1.15727 11.2621 1.39264C11.2621 1.40143 11.2624 1.41022 11.2628 1.41896C11.4077 3.9756 11.2202 5.70986 10.6791 6.93279C10.6683 6.94494 10.6583 6.95777 10.6492 6.97114C10.6476 6.9924 10.6476 7.01381 10.6492 7.03506C10.4427 7.48024 10.1633 7.88775 9.82259 8.24095L9.78424 8.26651C9.78424 8.26651 9.78424 8.26651 9.78424 8.29634C9.28468 8.77278 8.70853 9.16171 8.07981 9.44683C6.98439 9.93286 5.86021 10.3512 4.71355 10.6996L4.49624 10.772C0.512129 12.093 -0.00772321 14.4877 0.000798953 15.6893C-0.000266318 15.7064 -0.000266318 15.7234 0.000798953 15.7404V18.7829C0.00143811 18.9309 0.07883 19.068 0.205331 19.145C1.18176 19.7391 2.23574 20.1951 3.33722 20.5001C3.56375 20.5638 3.79907 20.4318 3.86278 20.2052C3.87476 20.1625 3.88003 20.1182 3.87838 20.074V19.976H4.50476V20.4021C4.50204 20.6131 4.65433 20.7944 4.86269 20.8282C5.23341 20.8878 5.60412 20.9347 5.96631 20.9645C6.08498 20.9745 6.20243 20.9343 6.29015 20.8537C6.37783 20.7724 6.42731 20.658 6.42651 20.5384V20.0015H7.05289V20.6066C7.05289 20.8419 7.24368 21.0327 7.479 21.0327C7.83693 21.0327 8.19486 21.0327 8.57835 20.9816C8.8003 20.9638 8.97107 20.7781 8.97037 20.5555V20.0015H9.59675V20.3765C9.59372 20.6118 9.782 20.8051 10.0173 20.8081C10.042 20.8084 10.0666 20.8066 10.091 20.8026C10.8732 20.6828 11.6442 20.499 12.3963 20.2529L12.4645 20.2231C15.4472 18.5187 17.3391 19.9206 17.4158 19.9802C17.4902 20.038 17.5816 20.0694 17.6758 20.0697H18.2041C18.4395 20.0697 18.6302 19.8789 18.6302 19.6436V18.9235H19.2396V19.6351C19.2396 19.8704 19.4304 20.0612 19.6657 20.0612H21.0378C21.2731 20.0612 21.4639 19.8704 21.4639 19.6351V18.9235H22.0945V19.6351C22.0945 19.8704 22.2853 20.0612 22.5206 20.0612H23.5731C23.8084 20.0612 23.9992 19.8704 23.9992 19.6351V15.0416C24.0034 14.8359 23.8599 14.6566 23.6583 14.6155ZM13.5468 1.82802H13.8962H22.1371V5.35619H13.5468V1.82802ZM8.1906 10.3246L8.19486 10.3502C8.54416 10.6338 8.86651 10.949 9.15786 11.2919C9.08058 11.4204 9.04073 11.568 9.04281 11.718C9.03988 12.1675 9.40191 12.5342 9.85135 12.5371C10.3008 12.5401 10.6676 12.178 10.6705 11.7286C10.6733 11.3051 10.3509 10.9504 9.92912 10.9126C9.6596 10.5452 9.35254 10.2067 9.01298 9.90277C9.39377 9.68604 9.75202 9.43197 10.0825 9.14429C10.4958 9.532 10.8803 9.94927 11.233 10.3928C11.0848 10.8171 11.3086 11.2813 11.7329 11.4296C12.1572 11.5778 12.6214 11.354 12.7697 10.9297C12.9179 10.5053 12.6941 10.0412 12.2698 9.89291C12.1817 9.86213 12.0891 9.84673 11.9957 9.84737H11.8935C11.5197 9.37684 11.1125 8.93396 10.6748 8.52218C10.8779 8.2721 11.0576 8.00398 11.2117 7.72109C11.8714 8.06448 12.5089 8.44873 13.1207 8.87159C13.1165 9.32576 13.4813 9.69733 13.9354 9.70154C14.3896 9.70574 14.7612 9.34094 14.7654 8.88677C14.7696 8.43259 14.4048 8.06102 13.9506 8.05681C13.8209 8.05559 13.6927 8.0851 13.5766 8.14294C12.9327 7.70703 12.2624 7.31144 11.5696 6.95836C12.0341 5.72265 12.2344 4.08213 12.1406 1.84506H12.6988V5.37324C12.6988 5.84393 13.0803 6.22545 13.551 6.22545H21.5363C21.6471 6.45129 21.8346 6.84331 22.0391 7.35464H21.8644C19.2758 7.37334 17.1925 9.48694 17.2112 12.0755C17.2218 13.5465 17.9224 14.9272 19.1032 15.8044C15.656 16.712 10.4703 17.79 6.10693 17.5088C6.91227 14.2917 5.94927 12.3103 5.32289 11.441C6.2983 11.1211 7.25561 10.7484 8.1906 10.3246ZM4.46641 11.6839C4.92661 12.2251 6.12823 14.0445 5.24619 17.3895C3.71082 17.2688 2.2196 16.8182 0.874321 16.0685C0.859034 15.9712 0.849074 15.873 0.844493 15.7745V15.7447C0.810404 14.8371 1.15129 12.8727 4.46641 11.6839ZM22.9467 19.209V18.4974C22.9467 18.262 22.7559 18.0713 22.5206 18.0713H21.042C20.8067 18.0713 20.6159 18.262 20.6159 18.4974V19.209H20.0918V18.4974C20.0918 18.262 19.901 18.0713 19.6657 18.0713H18.1956C17.9603 18.0713 17.7695 18.262 17.7695 18.4974V19.1919C17.19 18.8297 15.0722 17.7772 12.0682 19.4561C11.5337 19.6325 10.9886 19.7748 10.4362 19.8822V19.5882C10.4362 19.3529 10.2454 19.1621 10.0101 19.1621H8.54C8.30469 19.1621 8.1139 19.3529 8.1139 19.5882V20.172H7.89658V19.5754C7.89658 19.3401 7.70579 19.1493 7.47047 19.1493H5.99188C5.75656 19.1493 5.56577 19.3401 5.56577 19.5754V20.0825L5.34845 20.0527V19.5754C5.34845 19.3401 5.15767 19.1493 4.92235 19.1493H3.44375C3.22702 19.1478 3.04364 19.3091 3.01764 19.5243C2.26136 19.2753 1.53308 18.9482 0.844493 18.5485V17.023C2.70232 18.0073 5.10557 18.3781 7.66222 18.3781C14.4544 18.3781 22.2266 15.7788 23.1427 15.4677L23.147 19.209H22.9467ZM22.7379 14.7135C22.3757 14.8328 21.4852 15.1396 20.2537 15.4677C18.3473 14.5451 17.5497 12.2516 18.4724 10.3451C19.1036 9.04102 20.4158 8.20393 21.8644 8.18129C22.0324 8.17895 22.2003 8.18747 22.3672 8.20686L22.3715 8.21964C22.9979 10.0263 23.5603 12.6043 22.7379 14.7135Z" fill="#2D383F"/>
</symbol>

<symbol id="trees" width="23" height="23" viewBox="0 0 23 23" fill="none" xmlns="http://www.w3.org/2000/svg">
<path d="M22.6246 16.6366L18.1102 11.4721H20.2913C20.546 11.4714 20.7519 11.2645 20.7514 11.0098C20.7511 10.9085 20.7175 10.81 20.6556 10.7297L17.0312 5.96629H18.8757C19.1304 5.96595 19.3365 5.75925 19.3362 5.5046C19.3361 5.39278 19.2953 5.28482 19.2215 5.20083L14.7856 0.156187C14.6172 -0.0348313 14.3257 -0.0531031 14.1347 0.115378C14.1202 0.128117 14.1066 0.141778 14.0939 0.156187L9.65332 5.19622C9.4827 5.38528 9.49763 5.67688 9.68663 5.8475C9.77229 5.92479 9.88376 5.96716 9.99916 5.96629H11.8667L10.7508 7.42343L7.76273 4.02498C7.5943 3.83396 7.30288 3.81569 7.11186 3.98417C7.09739 3.99691 7.08379 4.01057 7.07105 4.02498L3.27604 8.33645C3.10796 8.52775 3.12681 8.81912 3.31811 8.9872C3.40209 9.06098 3.51005 9.10173 3.62188 9.10191H5.08362L2.04946 13.0721C1.89919 13.2777 1.94398 13.5662 2.14958 13.7166C2.22636 13.7727 2.31864 13.8037 2.41374 13.8053H4.11988L0.370984 18.1168C0.205442 18.3103 0.228094 18.6014 0.421649 18.767C0.503959 18.8374 0.608518 18.8766 0.716823 18.8776H5.8168V22.1055C5.8168 22.5995 6.21734 23 6.71138 23H8.11779C8.61182 23.0026 9.01444 22.6042 9.01697 22.1101C9.01697 22.1085 9.01697 22.107 9.01697 22.1055V18.8776H12.8443V22.1055C12.8443 22.5995 13.2448 23 13.7388 23H15.1453C15.6393 23 16.0398 22.5995 16.0398 22.1055V17.4021H22.2788C22.5334 17.4017 22.7396 17.195 22.7393 16.9404C22.7391 16.8285 22.6984 16.7206 22.6246 16.6366ZM8.09473 22.0778L6.73904 22.1055L6.71138 18.8776H8.09473V22.0778ZM12.8443 17.9554H1.73129L5.50324 13.6532C5.67397 13.4642 5.65916 13.1726 5.47022 13.0019C5.38214 12.9223 5.2668 12.8798 5.14818 12.8831H3.34981L6.38398 8.91285C6.53932 8.71105 6.50168 8.42152 6.29988 8.26618C6.21953 8.20434 6.12109 8.17067 6.0197 8.17044H4.63634L7.40306 5.021L10.1698 8.16122L8.22385 10.7343C8.06851 10.9361 8.10615 11.2256 8.30795 11.3809C8.3883 11.4428 8.48674 11.4764 8.58813 11.4767H10.7738L6.25948 16.6412C6.0914 16.8325 6.11025 17.1239 6.30156 17.292C6.38554 17.3657 6.4935 17.4065 6.60532 17.4067H12.8443V17.9554V17.9554ZM15.1176 22.0686L13.7665 22.1055L13.7388 17.4021H15.1222L15.1176 22.0686ZM15.1453 16.4798H7.61978L12.1341 11.3153C12.3022 11.124 12.2834 10.8326 12.0921 10.6645C12.0081 10.5907 11.9001 10.55 11.7883 10.5498H9.52421L13.167 5.78185C13.3199 5.57815 13.2786 5.28908 13.0749 5.13628C12.9963 5.07737 12.901 5.04503 12.8028 5.04405H11.0367L14.4582 1.16143L17.8612 5.04405H16.0813C15.8267 5.04469 15.6207 5.25162 15.6213 5.50627C15.6215 5.60766 15.6552 5.70611 15.717 5.78646L19.3368 10.5498H17.0912C16.8365 10.5502 16.6303 10.7569 16.6306 11.0115C16.6307 11.1233 16.6716 11.2313 16.7453 11.3153L21.2597 16.4798H15.1453Z" fill="#2D383F"/>
</symbol>

<symbol id="mountains" width="24" height="20" viewBox="0 0 24 20" fill="none" xmlns="http://www.w3.org/2000/svg">
<path d="M23.4153 19.1881L19.3747 9.79026L15.5583 0.907601C15.4551 0.6652 15.1749 0.552438 14.9325 0.655659C14.8192 0.703961 14.7289 0.794242 14.6806 0.907601L11.2744 8.8123L9.93871 11.9179L7.00963 5.15811C6.90634 4.91571 6.62614 4.80295 6.3838 4.90617C6.27044 4.95447 6.18016 5.04475 6.13186 5.15811L3.37928 11.5172L0.0399368 19.1834C-0.0654315 19.4248 0.0448861 19.706 0.286333 19.8114C0.347037 19.8379 0.412572 19.8515 0.478822 19.8512H22.9765C23.2399 19.851 23.4533 19.6373 23.4531 19.3738C23.4531 19.31 23.4402 19.2469 23.4153 19.1881ZM15.1147 2.29581L18.2107 9.49448H17.1231L15.1576 7.32391C14.9804 7.12892 14.6787 7.11455 14.4837 7.29177C14.4531 7.31956 14.4263 7.35122 14.4039 7.38593L13.6692 8.5213H12.4384L15.1147 2.29581ZM6.57074 6.53201L9.018 12.1898H7.68226C7.52007 12.1901 7.36914 12.2728 7.28154 12.4093L6.80449 13.1678L5.57371 11.4313C5.48474 11.303 5.33864 11.2264 5.18253 11.2262H4.54805L6.57074 6.53201ZM1.22779 18.8971L4.13302 12.1803H4.93446L6.42285 14.3031C6.51182 14.4314 6.65792 14.508 6.81403 14.5083C6.97283 14.5048 7.11947 14.4225 7.20522 14.2888L7.93987 13.1535H9.42826L11.9137 18.878L1.22779 18.8971ZM12.9584 18.8971L10.4587 13.1248L12.0282 9.4754H13.9364C14.0986 9.4751 14.2495 9.39246 14.3371 9.25596L14.8666 8.44021L16.5554 10.3055C16.6455 10.4054 16.7738 10.4626 16.9084 10.4629H18.6162L22.2466 18.9114L12.9584 18.8971Z" fill="#2D383F"/>
</symbol>

<symbol id="left-cloud" width="10" height="8" viewBox="0 0 10 8" fill="none" xmlns="http://www.w3.org/2000/svg">
<path d="M6.61096 2.08167C6.16093 0.922381 4.85626 0.347477 3.69703 0.797573C2.83387 1.13264 2.26385 1.96199 2.26028 2.88788C2.25557 2.97053 2.25557 3.0533 2.26028 3.13595C1.13241 3.65975 0.642781 4.99871 1.16658 6.12657C1.52932 6.90756 2.30572 7.41329 3.16667 7.42939L3.19052 7.44847H6.52987C8.01188 7.47089 9.23139 6.28763 9.25382 4.80562C9.27618 3.32361 8.09298 2.10409 6.61096 2.08167ZM6.55849 6.50869H3.21914C2.50512 6.58245 1.86653 6.06348 1.79277 5.34946C1.719 4.63543 2.23797 3.99684 2.952 3.92308C3.21026 3.87102 3.37747 3.6195 3.32541 3.36118C3.32141 3.34144 3.31622 3.32194 3.30978 3.30292C3.26321 3.16946 3.23906 3.02921 3.23823 2.88788C3.23417 2.17124 3.81176 1.58703 4.52841 1.58291C5.16234 1.57928 5.70606 2.03426 5.81429 2.6589C5.85812 2.90971 6.09122 3.08186 6.34382 3.05008C6.41531 3.04537 6.48699 3.04537 6.55849 3.05008C7.51354 3.05008 8.28779 3.82433 8.28779 4.77938C8.28779 5.73444 7.51354 6.50869 6.55849 6.50869Z" fill="#2D383F"/>
</symbol>

<symbol id="right-cloud" width="9" height="7" viewBox="0 0 9 7" fill="none" xmlns="http://www.w3.org/2000/svg">
<path d="M7.69657 2.63977C7.70128 2.55712 7.70128 2.47435 7.69657 2.3917C7.69174 1.14815 6.67973 0.143962 5.43619 0.148733C4.51703 0.152311 3.69364 0.714394 3.35387 1.56706C1.87937 1.59795 0.704573 2.81371 0.726875 4.29036C0.749296 5.77237 1.96881 6.95563 3.45083 6.93321H6.79017C8.03354 6.90995 9.02264 5.88322 8.99939 4.63985C8.98329 3.7789 8.47755 3.0025 7.69657 2.63977ZM8.0559 4.94737C7.9296 5.53987 7.41022 5.96611 6.80448 5.97434H3.46514C2.51008 5.97434 1.73583 5.20009 1.73583 4.24504C1.73583 3.28998 2.51008 2.51573 3.46514 2.51573C3.53663 2.51102 3.60831 2.51102 3.67981 2.51573C3.9212 2.54078 4.14291 2.38067 4.19502 2.14363C4.31458 1.43706 4.9843 0.961207 5.69093 1.08077C6.3975 1.20033 6.87336 1.87005 6.7538 2.57667C6.74163 2.64841 6.7235 2.71901 6.69953 2.78771C6.61527 3.03733 6.74938 3.30799 6.99906 3.39225C7.01814 3.39869 7.03758 3.40394 7.05732 3.40787C7.75822 3.55719 8.20528 4.24647 8.0559 4.94737Z" fill="#2D383F"/>
</symbol>

<symbol id="ellipse" width="14" height="14" viewBox="0 0 14 14" fill="none" xmlns="http://www.w3.org/2000/svg">
<circle cx="7" cy="7" r="7" fill="#0266C1"/>
</symbol>

<symbol id="lmark" width="30" height="23" viewBox="0 0 30 23" fill="none" xmlns="http://www.w3.org/2000/svg">
<path opacity="0.05" d="M17.668 22.052L16.81 17.894C21.474 17.41 23.63 15.232 23.278 11.36H19.186V0.799997H29.878V9.71C29.878 13.934 28.844 17.036 26.776 19.016C24.752 20.952 21.716 21.964 17.668 22.052ZM0.904 22.052L0.0460001 17.894C4.71 17.41 6.866 15.232 6.514 11.36H2.422V0.799997H13.114V9.71C13.114 13.934 12.08 17.036 10.012 19.016C7.988 20.952 4.952 21.964 0.904 22.052Z" fill="#2D383F"/>
</symbol>

<symbol id="rmark" width="31" height="22" viewBox="0 0 31 22" fill="none" xmlns="http://www.w3.org/2000/svg">
<path opacity="0.05" d="M17.0148 21.722V12.812C17.0148 8.588 18.0268 5.508 20.0508 3.572C22.1188 1.592 25.1768 0.557999 29.2248 0.469997L30.0828 4.628C25.4188 5.112 23.2628 7.29 23.6148 11.162H27.7068V21.722H17.0148ZM0.25077 21.722V12.812C0.25077 8.588 1.26277 5.508 3.28677 3.572C5.35477 1.592 8.41277 0.557999 12.4608 0.469997L13.3188 4.628C8.65477 5.112 6.49877 7.29 6.85077 11.162H10.9428V21.722H0.25077Z" fill="#2D383F"/>
</symbol>

<symbol id="line" width="80" height="1" viewBox="0 0 80 1" fill="none" xmlns="http://www.w3.org/2000/svg">
<rect opacity="0.284" x="0.739502" width="79.0074" height="1" fill="white"/>
</symbol>

<symbol id="vectorR"  width="9" height="14" viewBox="0 0 9 14" fill="none" xmlns="http://www.w3.org/2000/svg">
<path d="M1 13L7 7L0.999999 1" stroke="#2D383F" stroke-width="2"/>
</symbol>

</svg>