<svg>
<symbol id="Logo" width="62" height="62" viewBox="0 0 62 62" fill="none" xmlns="http://www.w3.org/2000/svg">
<path d="M38.4033 13.5742L30.3543 21.7596L35.6749 27.2166L38.4033 24.4881L53.3418 39.3583C49.9312 48.4305 41.2 54.9106 30.9 54.9106C17.6669 54.9106 6.95762 44.2014 6.95762 30.9682C7.02583 17.7351 17.7351 7.02583 30.9682 7.02583C42.7007 7.02583 52.5232 15.5523 54.5014 26.6709L61.7318 34.3106C61.8683 33.2192 61.9365 32.0596 61.9365 30.9682C61.9365 22.7146 58.7305 14.9384 52.8643 9.07219C46.998 3.20596 39.2219 0 30.9682 0C22.6464 0 14.9384 3.20596 9.07219 9.07219C3.20596 14.9384 0 22.6464 0 30.9682C0 39.2901 3.20596 46.998 9.07219 52.8643C14.9384 58.7305 22.7146 61.9365 30.9682 61.9365C39.2219 61.9365 46.998 58.7305 52.8643 52.8643C56.4795 49.249 59.0716 44.9517 60.504 40.2451C60.7769 39.4265 60.9815 38.5398 61.1861 37.7212L54.9106 31.1047L38.4033 13.5742Z" fill="#2D383F"/>
</symbol>

<symbol id="logo-part" width="35" height="18" viewBox="0 0 35 18" fill="none" xmlns="http://www.w3.org/2000/svg">
<path d="M11.7825 17.1768L17.2395 11.447L23.4468 17.1768H34.0878L17.1713 0.601318L0.391113 17.1768H11.7825Z" fill="#2D383F"/>
</symbol>

<symbol id="insta "width="13" height="13" viewBox="0 0 13 13" fill="none" xmlns="http://www.w3.org/2000/svg">
<path d="M9.41239 0H3.58745C1.60933 0 0 1.60941 0 3.58753V9.41247C0 11.3907 1.60933 13 3.58745 13H9.41239C11.3907 13 13 11.3906 13 9.41247V3.58753C13.0001 1.60941 11.3907 0 9.41239 0ZM11.8467 9.41247C11.8467 10.7547 10.7547 11.8466 9.41247 11.8466H3.58745C2.24533 11.8467 1.15342 10.7547 1.15342 9.41247V3.58753C1.15342 2.24541 2.24533 1.15342 3.58745 1.15342H9.41239C10.7546 1.15342 11.8466 2.24541 11.8466 3.58753L11.8467 9.41247Z" fill="white"/>
<path d="M6.50006 3.15033C4.65297 3.15033 3.1503 4.65301 3.1503 6.50011C3.1503 8.34713 4.65297 9.84973 6.50006 9.84973C8.34715 9.84973 9.84982 8.34713 9.84982 6.50011C9.84982 4.65301 8.34715 3.15033 6.50006 3.15033ZM6.50006 8.69623C5.28905 8.69623 4.30372 7.71105 4.30372 6.50003C4.30372 5.28893 5.28897 4.30368 6.50006 4.30368C7.71115 4.30368 8.69641 5.28893 8.69641 6.50003C8.69641 7.71105 7.71108 8.69623 6.50006 8.69623Z" fill="white"/>
<path d="M9.99027 2.1724C9.76803 2.1724 9.54971 2.26236 9.39276 2.41999C9.23504 2.57686 9.14437 2.79524 9.14437 3.01823C9.14437 3.24053 9.23512 3.45883 9.39276 3.61646C9.54963 3.77333 9.76803 3.86406 9.99027 3.86406C10.2133 3.86406 10.4309 3.77333 10.5885 3.61646C10.7462 3.45883 10.8362 3.24045 10.8362 3.01823C10.8362 2.79524 10.7462 2.57686 10.5885 2.41999C10.4317 2.26236 10.2133 2.1724 9.99027 2.1724Z" fill="white"/>
</symbol>

<symbol id="VK" width="12" height="8" viewBox="0 0 12 8" fill="none" xmlns="http://www.w3.org/2000/svg">
<path d="M11.8931 6.68356C11.8608 6.62955 11.6613 6.19602 10.7012 5.30495C9.69614 4.37188 9.83115 4.5234 11.0417 2.91003C11.779 1.92745 12.0738 1.32741 11.9816 1.07089C11.8938 0.82637 11.3515 0.890875 11.3515 0.890875L9.54838 0.901376C9.54838 0.901376 9.41487 0.883374 9.31511 0.942629C9.21835 1.00113 9.1561 1.13614 9.1561 1.13614C9.1561 1.13614 8.87033 1.8967 8.4893 2.54325C7.68599 3.9076 7.36421 3.9796 7.23295 3.89485C6.92768 3.69758 7.00419 3.10129 7.00419 2.67826C7.00419 1.35591 7.20445 0.804619 6.61341 0.662108C6.41689 0.614854 6.27288 0.583352 5.7711 0.578102C5.12755 0.571351 4.58226 0.580352 4.27398 0.731113C4.06847 0.831621 3.91021 1.05589 4.00696 1.06864C4.12622 1.08439 4.39624 1.14139 4.5395 1.33641C4.72477 1.58768 4.71802 2.15322 4.71802 2.15322C4.71802 2.15322 4.82453 3.70958 4.46975 3.9031C4.22598 4.03586 3.89221 3.76509 3.1759 2.52675C2.80913 1.89295 2.53161 1.19165 2.53161 1.19165C2.53161 1.19165 2.47835 1.06114 2.38309 0.991383C2.26759 0.906626 2.10557 0.879624 2.10557 0.879624L0.390946 0.890125C0.390946 0.890125 0.133677 0.897626 0.0391703 1.00938C-0.0448359 1.10914 0.0324198 1.31466 0.0324198 1.31466C0.0324198 1.31466 1.37502 4.45514 2.89463 6.03851C4.28899 7.48987 5.8716 7.39461 5.8716 7.39461H6.58866C6.58866 7.39461 6.80542 7.37061 6.91568 7.25135C7.01769 7.14184 7.01394 6.93632 7.01394 6.93632C7.01394 6.93632 6.99969 5.974 7.44672 5.83224C7.887 5.69273 8.45255 6.76231 9.05184 7.17409C9.50487 7.48536 9.84915 7.41711 9.84915 7.41711L11.452 7.39461C11.452 7.39461 12.2906 7.34285 11.8931 6.68356Z" fill="white"/>
</symbol>

<symbol id="FB" width="6" height="11" viewBox="0 0 6 11" fill="none" xmlns="http://www.w3.org/2000/svg">
<path d="M3.66572 3.98786V2.65633C3.66572 2.28883 3.96398 1.99057 4.33148 1.99057H4.99724V0.326172H3.66572C2.56255 0.326172 1.66844 1.22029 1.66844 2.32345V3.98786H0.336914V5.65226H1.66844V10.9783H3.66572V5.65226H4.99724L5.663 3.98786H3.66572Z" fill="white"/>
</symbol>

<symbol id="Location" width="9" height="12" viewBox="0 0 9 12" fill="none" xmlns="http://www.w3.org/2000/svg">
<path d="M4.49981 0C2.01874 0 0 1.98191 0 4.41796C0 5.05338 0.132472 5.66006 0.39354 6.2213C1.51862 8.63833 3.67571 11.1902 4.31017 11.9146C4.35771 11.9688 4.42701 12 4.49994 12C4.57287 12 4.64217 11.9688 4.6897 11.9146C5.32392 11.1903 7.48101 8.63857 8.60646 6.2213C8.86765 5.66006 9 5.05338 9 4.41796C8.99975 1.98191 6.98101 0 4.49981 0ZM4.49981 6.71267C3.21099 6.71267 2.16234 5.68315 2.16234 4.41784C2.16234 3.15241 3.21099 2.12289 4.49981 2.12289C5.78864 2.12289 6.83728 3.15241 6.83728 4.41784C6.83741 5.68315 5.78876 6.71267 4.49981 6.71267Z" fill="white"/>
</symbol>

<symbol id="days" width="23" height="22" viewBox="0 0 23 22" fill="none" xmlns="http://www.w3.org/2000/svg">
<path d="M15.655 7.10055C14.6779 6.11113 13.2984 5.47092 11.8039 5.47092C10.3095 5.47092 8.93 6.08203 7.95286 7.10055C6.97571 8.08996 6.34345 9.48679 6.34345 11C6.34345 12.5132 6.97571 13.9101 7.95286 14.8995C8.93 15.8889 10.3095 16.5291 11.8039 16.5291C13.2984 16.5291 14.6779 15.918 15.655 14.8995C16.6322 13.9101 17.2645 12.5132 17.2645 11C17.2645 9.48679 16.6609 8.08996 15.655 7.10055ZM14.6204 13.8519C13.9019 14.5794 12.896 15.0159 11.8039 15.0159C10.7118 15.0159 9.70597 14.5794 8.98748 13.8519C8.26899 13.1243 7.8379 12.1058 7.8379 11C7.8379 9.89419 8.26899 8.87568 8.98748 8.14817C9.70597 7.42065 10.7118 6.98415 11.8039 6.98415C12.896 6.98415 13.9019 7.42065 14.6204 8.14817C15.3389 8.87568 15.77 9.89419 15.77 11C15.77 12.1058 15.3389 13.1243 14.6204 13.8519Z" fill="white"/>
<path d="M21.9202 10.2434H19.7073C19.305 10.2434 18.9601 10.5926 18.9601 11C18.9601 11.4074 19.305 11.7566 19.7073 11.7566H21.9202C22.3226 11.7566 22.6675 11.4074 22.6675 11C22.6675 10.5926 22.3226 10.2434 21.9202 10.2434Z" fill="white"/>
<path d="M11.8039 18.246C11.4016 18.246 11.0567 18.5952 11.0567 19.0026V21.2434C11.0567 21.6508 11.4016 22 11.8039 22C12.2063 22 12.5512 21.6508 12.5512 21.2434V19.0026C12.5512 18.5952 12.2063 18.246 11.8039 18.246Z" fill="white"/>
<path d="M19.4774 17.7222L17.8967 16.1216C17.6381 15.8306 17.1495 15.8306 16.8621 16.1216C16.5747 16.4126 16.5747 16.8782 16.8621 17.1693L18.4428 18.7698C18.7302 19.0608 19.19 19.0608 19.4774 18.7698C19.7648 18.4788 19.7648 18.0132 19.4774 17.7222Z" fill="white"/>
<path d="M11.8039 0C11.4016 0 11.0567 0.349205 11.0567 0.756611V2.99735C11.0567 3.40475 11.4016 3.75396 11.8039 3.75396C12.2063 3.75396 12.5512 3.40475 12.5512 2.99735V0.756611C12.5512 0.349205 12.2063 0 11.8039 0Z" fill="white"/>
<path d="M19.5061 3.23018C19.2187 2.93918 18.7589 2.93918 18.4715 3.23018L16.8908 4.8307C16.6034 5.12171 16.6034 5.58732 16.8908 5.87832C17.1495 6.16932 17.6381 6.16932 17.9255 5.87832L19.5061 4.2778C19.7935 3.98679 19.7935 3.52118 19.5061 3.23018Z" fill="white"/>
<path d="M3.9006 10.2434H1.68766C1.2853 10.2434 0.94043 10.5926 0.94043 11C0.94043 11.4074 1.25656 11.7566 1.68766 11.7566H3.9006C4.30295 11.7566 4.64782 11.4074 4.64782 11C4.64782 10.5926 4.30295 10.2434 3.9006 10.2434Z" fill="white"/>
<path d="M6.71707 16.1216C6.45841 15.8306 5.96984 15.8306 5.68245 16.1216L4.10177 17.7222C3.81438 18.0132 3.81438 18.4788 4.10177 18.7698C4.38917 19.0608 4.849 19.0608 5.13639 18.7698L6.71707 17.1693C7.00446 16.8782 7.00446 16.4126 6.71707 16.1216Z" fill="white"/>
<path d="M6.71707 4.8307L5.13639 3.23018C4.849 2.93918 4.38917 2.93918 4.10177 3.23018C3.81438 3.52118 3.81438 3.98679 4.10177 4.2778L5.68245 5.87832C5.96984 6.16932 6.42967 6.16932 6.71707 5.87832C7.00446 5.58732 7.00446 5.12171 6.71707 4.8307Z" fill="white"/>
</symbol>

<symbol id="nights" width="20" height="20" viewBox="0 0 20 20" fill="none" xmlns="http://www.w3.org/2000/svg">
<path d="M19.5272 11.382C19.3228 11.3307 19.1183 11.382 18.9394 11.5103C18.2748 12.0745 17.5081 12.5362 16.6646 12.844C15.8723 13.1518 15.0033 13.3057 14.0831 13.3057C12.0128 13.3057 10.1215 12.4593 8.76681 11.0999C7.41217 9.74052 6.56872 7.84251 6.56872 5.76497C6.56872 4.89291 6.72207 4.0465 6.97767 3.27704C7.25882 2.45628 7.66777 1.71247 8.20451 1.07125C8.43454 0.789119 8.38343 0.378739 8.10227 0.147901C7.92336 0.0196574 7.71888 -0.0316401 7.51441 0.0196573C5.34188 0.609578 3.4505 1.91766 2.09586 3.66177C0.792336 5.38024 0 7.50908 0 9.84311C0 12.6388 1.12461 15.178 2.96487 17.0247C4.80513 18.8715 7.3355 20 10.1215 20C12.4729 20 14.6454 19.1792 16.3835 17.8199C18.147 16.4348 19.425 14.4599 19.9618 12.2028C20.0895 11.8181 19.8851 11.459 19.5272 11.382ZM15.6167 16.7426C14.1342 17.9225 12.2429 18.6406 10.1726 18.6406C7.74444 18.6406 5.54635 17.6403 3.96168 16.0501C2.37701 14.4599 1.3802 12.2541 1.3802 9.81746C1.3802 7.79122 2.04474 5.94451 3.1949 4.45688C3.98724 3.43094 4.98405 2.58453 6.13421 1.99461C6.00642 2.27674 5.87862 2.55888 5.77638 2.86666C5.44411 3.79002 5.29076 4.76467 5.29076 5.79062C5.29076 8.22724 6.28757 10.4587 7.87224 12.0489C9.45691 13.6391 11.6806 14.6394 14.1087 14.6394C15.1822 14.6394 16.2045 14.4599 17.1502 14.1008C17.4825 13.9726 17.8148 13.8443 18.1215 13.6904C17.5081 14.8703 16.6646 15.9219 15.6167 16.7426Z" fill="white"/>
</symbol>

<symbol id="AbsStar" width="15" height="14" viewBox="0 0 15 14" fill="none" xmlns="http://www.w3.org/2000/svg">
<path d="M7.5 11.0412L12.135 13.65L10.9087 8.72975L15 5.42084L9.60676 4.98892L7.5 0.350037L5.39326 4.98892L0 5.42084L4.09126 8.72975L2.865 13.65L7.5 11.0412Z" fill="white"/>
</symbol>

<symbol id="Star" width="15" height="14" viewBox="0 0 15 14" fill="none" xmlns="http://www.w3.org/2000/svg">
<path d="M7.74525 10.6054L7.5 10.4674L7.25475 10.6054L3.63071 12.6453L4.57642 8.85066L4.6535 8.54141L4.40569 8.34098L1.28779 5.81931L5.43318 5.48733L5.72674 5.46382L5.84852 5.19567L7.5 1.55921L9.15151 5.19568L9.27329 5.46382L9.56685 5.48733L13.7122 5.81931L10.5943 8.34098L10.3465 8.54141L10.4236 8.85066L11.3693 12.6453L7.74525 10.6054Z" stroke="#F3F3F3"/>
</symbol>

<symbol id="arrow" width="9" height="14" viewBox="0 0 9 14" fill="none" xmlns="http://www.w3.org/2000/svg">
<path d="M1 13L7 7L0.999999 1" stroke="#2D383F" stroke-width="2"/>
</symbol>

<symbol id="ghost-vk" width="14" height="8" viewBox="0 0 14 8" fill="none" xmlns="http://www.w3.org/2000/svg">
<path d="M13.1294 6.88535C13.1139 6.85288 13.0995 6.82596 13.0861 6.80439C12.8648 6.41569 12.4419 5.9386 11.8175 5.37297L11.8044 5.36002L11.7978 5.35367L11.7911 5.34716H11.7844C11.501 5.08377 11.3216 4.90668 11.2465 4.81601C11.109 4.64329 11.0782 4.46846 11.1533 4.29132C11.2064 4.15749 11.4058 3.87484 11.7511 3.44301C11.9327 3.21415 12.0765 3.03072 12.1828 2.89253C12.9488 1.89942 13.281 1.26481 13.1791 0.988446L13.1395 0.923865C13.1129 0.884984 13.0443 0.849415 12.9337 0.816977C12.8229 0.784607 12.6812 0.779253 12.5085 0.800826L10.5957 0.81371C10.5647 0.803003 10.5205 0.804001 10.4628 0.816977C10.4053 0.829952 10.3765 0.836463 10.3765 0.836463L10.3432 0.852682L10.3167 0.872167C10.2946 0.885052 10.2702 0.907714 10.2437 0.940107C10.2172 0.972386 10.1951 1.01027 10.1774 1.05344C9.96915 1.57587 9.73238 2.06161 9.46664 2.51062C9.3028 2.77836 9.15233 3.0104 9.01492 3.20686C8.87769 3.40326 8.76256 3.54797 8.66964 3.64072C8.57659 3.73357 8.49261 3.80795 8.41719 3.86414C8.34189 3.92035 8.28441 3.9441 8.2446 3.93541C8.20471 3.92672 8.16714 3.9181 8.13157 3.90948C8.06962 3.8706 8.01979 3.81772 7.98222 3.75081C7.94448 3.68389 7.91908 3.59966 7.9058 3.4982C7.89258 3.39666 7.88477 3.30933 7.88253 3.2359C7.88046 3.16256 7.88142 3.05883 7.88591 2.92499C7.89051 2.79109 7.89258 2.70049 7.89258 2.65299C7.89258 2.48889 7.89586 2.3108 7.90245 2.11866C7.90915 1.92653 7.91457 1.77429 7.9191 1.66214C7.92362 1.54988 7.92571 1.4311 7.92571 1.30589C7.92571 1.18067 7.91789 1.08247 7.90245 1.0112C7.88719 0.940015 7.86376 0.87092 7.83289 0.803934C7.80183 0.737015 7.75638 0.68525 7.69673 0.648502C7.63697 0.611799 7.56266 0.582672 7.47424 0.561032C7.23954 0.509244 6.94068 0.481229 6.57752 0.476874C5.75397 0.468254 5.22481 0.52011 4.99013 0.632373C4.89714 0.679806 4.813 0.744614 4.73777 0.826595C4.65805 0.921619 4.64693 0.973475 4.70448 0.982004C4.97019 1.02082 5.1583 1.11366 5.26901 1.26045L5.3089 1.33824C5.33994 1.39436 5.37092 1.49371 5.40193 1.63617C5.4329 1.77863 5.45288 1.93621 5.46167 2.10884C5.48377 2.42408 5.48377 2.69393 5.46167 2.91841C5.4395 3.14299 5.41857 3.31781 5.39858 3.44303C5.3786 3.56824 5.34873 3.66971 5.3089 3.7474C5.26901 3.82512 5.24246 3.87262 5.22916 3.88986C5.21587 3.9071 5.2048 3.91797 5.19601 3.92223C5.13845 3.94374 5.0786 3.95469 5.01665 3.95469C4.9546 3.95469 4.87937 3.92443 4.79083 3.86396C4.70232 3.80348 4.61045 3.72041 4.51523 3.61461C4.42002 3.50879 4.31263 3.36091 4.19304 3.17095C4.07354 2.981 3.94954 2.75649 3.82113 2.49744L3.71489 2.30957C3.64847 2.18871 3.55774 2.01273 3.44261 1.78178C3.32741 1.55074 3.22559 1.32726 3.13708 1.11137C3.10169 1.0207 3.04854 0.951675 2.9777 0.904175L2.94446 0.884689C2.92236 0.867449 2.88688 0.849143 2.83821 0.829634C2.78948 0.810149 2.73862 0.796175 2.68544 0.787578L0.865588 0.800463C0.679622 0.800463 0.553442 0.841544 0.487003 0.923592L0.460413 0.962405C0.447129 0.984023 0.44043 1.01855 0.44043 1.06607C0.44043 1.11357 0.453713 1.17187 0.480303 1.2409C0.745968 1.84974 1.03487 2.43692 1.34702 3.00253C1.65917 3.56813 1.93041 4.02374 2.1606 4.36895C2.39084 4.71441 2.62552 5.04044 2.86464 5.34691C3.10376 5.65348 3.26205 5.84995 3.33949 5.93626C3.41702 6.02274 3.47793 6.08739 3.5222 6.13055L3.68827 6.28596C3.79454 6.38961 3.95059 6.51373 4.15649 6.65834C4.36244 6.80305 4.59044 6.9455 4.84062 7.08594C5.09083 7.22615 5.38193 7.34057 5.71406 7.42906C6.04614 7.51764 6.36936 7.55319 6.68376 7.53604H7.44758C7.60249 7.523 7.71985 7.4755 7.79962 7.39352L7.82605 7.36105C7.84382 7.33529 7.86046 7.29525 7.87581 7.24137C7.89135 7.18741 7.89907 7.12795 7.89907 7.06328C7.89454 6.87766 7.90903 6.71036 7.94216 6.56142C7.97526 6.41252 8.01299 6.30025 8.05519 6.22465C8.09737 6.14911 8.14497 6.08537 8.19794 6.03369C8.25102 5.9819 8.28885 5.95053 8.31104 5.93973C8.3331 5.92887 8.35071 5.9215 8.36399 5.91707C8.47025 5.88255 8.59532 5.91598 8.73936 6.01754C8.88329 6.11901 9.01829 6.24429 9.14456 6.39319C9.27076 6.54223 9.42239 6.70943 9.59947 6.89505C9.77667 7.08075 9.9316 7.21878 10.0644 7.30958L10.1972 7.3873C10.2859 7.43916 10.401 7.48666 10.5427 7.52982C10.6842 7.57297 10.8081 7.58377 10.9145 7.56219L12.6148 7.53633C12.7829 7.53633 12.9138 7.50918 13.0066 7.45531C13.0996 7.40134 13.1549 7.34189 13.1727 7.27721C13.1905 7.21247 13.1914 7.13902 13.1761 7.05691C13.1603 6.97499 13.1448 6.91772 13.1294 6.88535Z" fill="#494949"/>
</svg>

<symbol id="route" width="25" height="25" viewBox="0 0 25 25" fill="none" xmlns="http://www.w3.org/2000/svg">
<path d="M24.1702 22.2803V6.70123C24.1821 6.44571 23.9845 6.22897 23.7291 6.2171C23.6746 6.21456 23.6201 6.22168 23.5681 6.23812V6.26127L21.4841 6.91426C21.7023 6.33016 21.8319 5.71665 21.8685 5.09423C21.8685 2.28077 19.5878 0 16.7743 0C13.9608 0 11.6801 2.28077 11.6801 5.09423C11.7126 5.68754 11.8327 6.27279 12.0367 6.8309L8.5911 5.59902C8.5511 5.5941 8.51069 5.5941 8.47069 5.59902H8.43364C8.37813 5.60001 8.32319 5.61101 8.27155 5.63144L1.12574 8.41011C0.960927 8.47281 0.846018 8.62361 0.829346 8.79913V16.246V24.3967C0.830098 24.6525 1.03804 24.8592 1.29385 24.8585C1.3504 24.8583 1.40644 24.8478 1.45918 24.8274L8.44291 22.1229L16.4084 24.9756C16.5046 25.0081 16.6087 25.0081 16.7048 24.9756L23.846 22.7434C24.0467 22.6806 24.1798 22.4904 24.1702 22.2803ZM16.7743 0.926224C19.0762 0.926224 20.9423 2.79228 20.9423 5.09423C20.9423 6.905 18.2238 11.9066 16.7743 14.3565C15.3247 11.8881 12.6063 6.88184 12.6063 5.09423C12.6063 2.79228 14.4723 0.926224 16.7743 0.926224ZM23.2579 21.9608L17.0244 23.9105V20.3769C17.0244 20.1212 16.817 19.9138 16.5613 19.9138C16.3055 19.9138 16.0981 20.1212 16.0981 20.3769V23.8781L8.90139 21.3032V18.3392C8.90139 18.0835 8.69403 17.8761 8.43828 17.8761C8.18252 17.8761 7.97516 18.0835 7.97516 18.3392V21.3032L1.75557 23.7252V16.5655L4.04334 15.6393C4.28816 15.5652 4.42651 15.3067 4.35241 15.0618C4.27831 14.817 4.01978 14.6787 3.77497 14.7528C3.74938 14.7605 3.72449 14.7705 3.70058 14.7825L1.75551 15.5652V9.11868L7.97511 6.71049V8.09983C7.97511 8.35558 8.18246 8.56294 8.43822 8.56294C8.69397 8.56294 8.90133 8.35558 8.90133 8.09983V6.69197L12.4534 7.96553C13.5925 10.5687 14.9029 13.0936 16.376 15.5235C16.5086 15.7422 16.7934 15.8119 17.0121 15.6793C17.0758 15.6407 17.1292 15.5872 17.1679 15.5235C18.6337 13.1079 19.9394 10.5985 21.0765 8.01184L23.2439 7.33106L23.2578 14.9215L20.9098 15.4911C20.6541 15.5218 20.4716 15.754 20.5023 16.0098C20.533 16.2655 20.7652 16.448 21.021 16.4173C21.0579 16.4218 21.0952 16.4218 21.1321 16.4173L23.2578 15.8986V21.9608H23.2579Z" fill="#2D383F"/>
</symbol>

<symbol id="nike" width="24" height="22" viewBox="0 0 24 22" fill="none" xmlns="http://www.w3.org/2000/svg">
<path d="M23.6583 14.6155C24.404 12.2804 23.7904 9.63006 23.1385 7.79353C23.1342 7.72248 23.1123 7.65361 23.0746 7.59326C22.853 6.99671 22.6484 6.50669 22.4737 6.15302C22.7953 6.02497 23.0075 5.71508 23.0106 5.36898V1.8195C23.0106 1.34881 22.6291 0.967282 22.1584 0.967282H11.6889C11.4536 0.966856 11.2625 1.15727 11.2621 1.39264C11.2621 1.40143 11.2624 1.41022 11.2628 1.41896C11.4077 3.9756 11.2202 5.70986 10.6791 6.93279C10.6683 6.94494 10.6583 6.95777 10.6492 6.97114C10.6476 6.9924 10.6476 7.01381 10.6492 7.03506C10.4427 7.48024 10.1633 7.88775 9.82259 8.24095L9.78424 8.26651C9.78424 8.26651 9.78424 8.26651 9.78424 8.29634C9.28468 8.77278 8.70853 9.16171 8.07981 9.44683C6.98439 9.93286 5.86021 10.3512 4.71355 10.6996L4.49624 10.772C0.512129 12.093 -0.00772321 14.4877 0.000798953 15.6893C-0.000266318 15.7064 -0.000266318 15.7234 0.000798953 15.7404V18.7829C0.00143811 18.9309 0.07883 19.068 0.205331 19.145C1.18176 19.7391 2.23574 20.1951 3.33722 20.5001C3.56375 20.5638 3.79907 20.4318 3.86278 20.2052C3.87476 20.1625 3.88003 20.1182 3.87838 20.074V19.976H4.50476V20.4021C4.50204 20.6131 4.65433 20.7944 4.86269 20.8282C5.23341 20.8878 5.60412 20.9347 5.96631 20.9645C6.08498 20.9745 6.20243 20.9343 6.29015 20.8537C6.37783 20.7724 6.42731 20.658 6.42651 20.5384V20.0015H7.05289V20.6066C7.05289 20.8419 7.24368 21.0327 7.479 21.0327C7.83693 21.0327 8.19486 21.0327 8.57835 20.9816C8.8003 20.9638 8.97107 20.7781 8.97037 20.5555V20.0015H9.59675V20.3765C9.59372 20.6118 9.782 20.8051 10.0173 20.8081C10.042 20.8084 10.0666 20.8066 10.091 20.8026C10.8732 20.6828 11.6442 20.499 12.3963 20.2529L12.4645 20.2231C15.4472 18.5187 17.3391 19.9206 17.4158 19.9802C17.4902 20.038 17.5816 20.0694 17.6758 20.0697H18.2041C18.4395 20.0697 18.6302 19.8789 18.6302 19.6436V18.9235H19.2396V19.6351C19.2396 19.8704 19.4304 20.0612 19.6657 20.0612H21.0378C21.2731 20.0612 21.4639 19.8704 21.4639 19.6351V18.9235H22.0945V19.6351C22.0945 19.8704 22.2853 20.0612 22.5206 20.0612H23.5731C23.8084 20.0612 23.9992 19.8704 23.9992 19.6351V15.0416C24.0034 14.8359 23.8599 14.6566 23.6583 14.6155ZM13.5468 1.82802H13.8962H22.1371V5.35619H13.5468V1.82802ZM8.1906 10.3246L8.19486 10.3502C8.54416 10.6338 8.86651 10.949 9.15786 11.2919C9.08058 11.4204 9.04073 11.568 9.04281 11.718C9.03988 12.1675 9.40191 12.5342 9.85135 12.5371C10.3008 12.5401 10.6676 12.178 10.6705 11.7286C10.6733 11.3051 10.3509 10.9504 9.92912 10.9126C9.6596 10.5452 9.35254 10.2067 9.01298 9.90277C9.39377 9.68604 9.75202 9.43197 10.0825 9.14429C10.4958 9.532 10.8803 9.94927 11.233 10.3928C11.0848 10.8171 11.3086 11.2813 11.7329 11.4296C12.1572 11.5778 12.6214 11.354 12.7697 10.9297C12.9179 10.5053 12.6941 10.0412 12.2698 9.89291C12.1817 9.86213 12.0891 9.84673 11.9957 9.84737H11.8935C11.5197 9.37684 11.1125 8.93396 10.6748 8.52218C10.8779 8.2721 11.0576 8.00398 11.2117 7.72109C11.8714 8.06448 12.5089 8.44873 13.1207 8.87159C13.1165 9.32576 13.4813 9.69733 13.9354 9.70154C14.3896 9.70574 14.7612 9.34094 14.7654 8.88677C14.7696 8.43259 14.4048 8.06102 13.9506 8.05681C13.8209 8.05559 13.6927 8.0851 13.5766 8.14294C12.9327 7.70703 12.2624 7.31144 11.5696 6.95836C12.0341 5.72265 12.2344 4.08213 12.1406 1.84506H12.6988V5.37324C12.6988 5.84393 13.0803 6.22545 13.551 6.22545H21.5363C21.6471 6.45129 21.8346 6.84331 22.0391 7.35464H21.8644C19.2758 7.37334 17.1925 9.48694 17.2112 12.0755C17.2218 13.5465 17.9224 14.9272 19.1032 15.8044C15.656 16.712 10.4703 17.79 6.10693 17.5088C6.91227 14.2917 5.94927 12.3103 5.32289 11.441C6.2983 11.1211 7.25561 10.7484 8.1906 10.3246ZM4.46641 11.6839C4.92661 12.2251 6.12823 14.0445 5.24619 17.3895C3.71082 17.2688 2.2196 16.8182 0.874321 16.0685C0.859034 15.9712 0.849074 15.873 0.844493 15.7745V15.7447C0.810404 14.8371 1.15129 12.8727 4.46641 11.6839ZM22.9467 19.209V18.4974C22.9467 18.262 22.7559 18.0713 22.5206 18.0713H21.042C20.8067 18.0713 20.6159 18.262 20.6159 18.4974V19.209H20.0918V18.4974C20.0918 18.262 19.901 18.0713 19.6657 18.0713H18.1956C17.9603 18.0713 17.7695 18.262 17.7695 18.4974V19.1919C17.19 18.8297 15.0722 17.7772 12.0682 19.4561C11.5337 19.6325 10.9886 19.7748 10.4362 19.8822V19.5882C10.4362 19.3529 10.2454 19.1621 10.0101 19.1621H8.54C8.30469 19.1621 8.1139 19.3529 8.1139 19.5882V20.172H7.89658V19.5754C7.89658 19.3401 7.70579 19.1493 7.47047 19.1493H5.99188C5.75656 19.1493 5.56577 19.3401 5.56577 19.5754V20.0825L5.34845 20.0527V19.5754C5.34845 19.3401 5.15767 19.1493 4.92235 19.1493H3.44375C3.22702 19.1478 3.04364 19.3091 3.01764 19.5243C2.26136 19.2753 1.53308 18.9482 0.844493 18.5485V17.023C2.70232 18.0073 5.10557 18.3781 7.66222 18.3781C14.4544 18.3781 22.2266 15.7788 23.1427 15.4677L23.147 19.209H22.9467ZM22.7379 14.7135C22.3757 14.8328 21.4852 15.1396 20.2537 15.4677C18.3473 14.5451 17.5497 12.2516 18.4724 10.3451C19.1036 9.04102 20.4158 8.20393 21.8644 8.18129C22.0324 8.17895 22.2003 8.18747 22.3672 8.20686L22.3715 8.21964C22.9979 10.0263 23.5603 12.6043 22.7379 14.7135Z" fill="#2D383F"/>
</symbol>

<symbol id="trees" width="23" height="23" viewBox="0 0 23 23" fill="none" xmlns="http://www.w3.org/2000/svg">
<path d="M22.6246 16.6366L18.1102 11.4721H20.2913C20.546 11.4714 20.7519 11.2645 20.7514 11.0098C20.7511 10.9085 20.7175 10.81 20.6556 10.7297L17.0312 5.96629H18.8757C19.1304 5.96595 19.3365 5.75925 19.3362 5.5046C19.3361 5.39278 19.2953 5.28482 19.2215 5.20083L14.7856 0.156187C14.6172 -0.0348313 14.3257 -0.0531031 14.1347 0.115378C14.1202 0.128117 14.1066 0.141778 14.0939 0.156187L9.65332 5.19622C9.4827 5.38528 9.49763 5.67688 9.68663 5.8475C9.77229 5.92479 9.88376 5.96716 9.99916 5.96629H11.8667L10.7508 7.42343L7.76273 4.02498C7.5943 3.83396 7.30288 3.81569 7.11186 3.98417C7.09739 3.99691 7.08379 4.01057 7.07105 4.02498L3.27604 8.33645C3.10796 8.52775 3.12681 8.81912 3.31811 8.9872C3.40209 9.06098 3.51005 9.10173 3.62188 9.10191H5.08362L2.04946 13.0721C1.89919 13.2777 1.94398 13.5662 2.14958 13.7166C2.22636 13.7727 2.31864 13.8037 2.41374 13.8053H4.11988L0.370984 18.1168C0.205442 18.3103 0.228094 18.6014 0.421649 18.767C0.503959 18.8374 0.608518 18.8766 0.716823 18.8776H5.8168V22.1055C5.8168 22.5995 6.21734 23 6.71138 23H8.11779C8.61182 23.0026 9.01444 22.6042 9.01697 22.1101C9.01697 22.1085 9.01697 22.107 9.01697 22.1055V18.8776H12.8443V22.1055C12.8443 22.5995 13.2448 23 13.7388 23H15.1453C15.6393 23 16.0398 22.5995 16.0398 22.1055V17.4021H22.2788C22.5334 17.4017 22.7396 17.195 22.7393 16.9404C22.7391 16.8285 22.6984 16.7206 22.6246 16.6366ZM8.09473 22.0778L6.73904 22.1055L6.71138 18.8776H8.09473V22.0778ZM12.8443 17.9554H1.73129L5.50324 13.6532C5.67397 13.4642 5.65916 13.1726 5.47022 13.0019C5.38214 12.9223 5.2668 12.8798 5.14818 12.8831H3.34981L6.38398 8.91285C6.53932 8.71105 6.50168 8.42152 6.29988 8.26618C6.21953 8.20434 6.12109 8.17067 6.0197 8.17044H4.63634L7.40306 5.021L10.1698 8.16122L8.22385 10.7343C8.06851 10.9361 8.10615 11.2256 8.30795 11.3809C8.3883 11.4428 8.48674 11.4764 8.58813 11.4767H10.7738L6.25948 16.6412C6.0914 16.8325 6.11025 17.1239 6.30156 17.292C6.38554 17.3657 6.4935 17.4065 6.60532 17.4067H12.8443V17.9554V17.9554ZM15.1176 22.0686L13.7665 22.1055L13.7388 17.4021H15.1222L15.1176 22.0686ZM15.1453 16.4798H7.61978L12.1341 11.3153C12.3022 11.124 12.2834 10.8326 12.0921 10.6645C12.0081 10.5907 11.9001 10.55 11.7883 10.5498H9.52421L13.167 5.78185C13.3199 5.57815 13.2786 5.28908 13.0749 5.13628C12.9963 5.07737 12.901 5.04503 12.8028 5.04405H11.0367L14.4582 1.16143L17.8612 5.04405H16.0813C15.8267 5.04469 15.6207 5.25162 15.6213 5.50627C15.6215 5.60766 15.6552 5.70611 15.717 5.78646L19.3368 10.5498H17.0912C16.8365 10.5502 16.6303 10.7569 16.6306 11.0115C16.6307 11.1233 16.6716 11.2313 16.7453 11.3153L21.2597 16.4798H15.1453Z" fill="#2D383F"/>
</symbol>

<symbol id="Mountains" width="24" height="20" viewBox="0 0 24 20" fill="none" xmlns="http://www.w3.org/2000/svg">
<path d="M23.4153 19.1881L19.3747 9.79026L15.5583 0.907601C15.4551 0.6652 15.1749 0.552438 14.9325 0.655659C14.8192 0.703961 14.7289 0.794242 14.6806 0.907601L11.2744 8.8123L9.93871 11.9179L7.00963 5.15811C6.90634 4.91571 6.62614 4.80295 6.3838 4.90617C6.27044 4.95447 6.18016 5.04475 6.13186 5.15811L3.37928 11.5172L0.0399368 19.1834C-0.0654315 19.4248 0.0448861 19.706 0.286333 19.8114C0.347037 19.8379 0.412572 19.8515 0.478822 19.8512H22.9765C23.2399 19.851 23.4533 19.6373 23.4531 19.3738C23.4531 19.31 23.4402 19.2469 23.4153 19.1881ZM15.1147 2.29581L18.2107 9.49448H17.1231L15.1576 7.32391C14.9804 7.12892 14.6787 7.11455 14.4837 7.29177C14.4531 7.31956 14.4263 7.35122 14.4039 7.38593L13.6692 8.5213H12.4384L15.1147 2.29581ZM6.57074 6.53201L9.018 12.1898H7.68226C7.52007 12.1901 7.36914 12.2728 7.28154 12.4093L6.80449 13.1678L5.57371 11.4313C5.48474 11.303 5.33864 11.2264 5.18253 11.2262H4.54805L6.57074 6.53201ZM1.22779 18.8971L4.13302 12.1803H4.93446L6.42285 14.3031C6.51182 14.4314 6.65792 14.508 6.81403 14.5083C6.97283 14.5048 7.11947 14.4225 7.20522 14.2888L7.93987 13.1535H9.42826L11.9137 18.878L1.22779 18.8971ZM12.9584 18.8971L10.4587 13.1248L12.0282 9.4754H13.9364C14.0986 9.4751 14.2495 9.39246 14.3371 9.25596L14.8666 8.44021L16.5554 10.3055C16.6455 10.4054 16.7738 10.4626 16.9084 10.4629H18.6162L22.2466 18.9114L12.9584 18.8971Z" fill="#2D383F"/>
</symbol>

<symbol id="left-cloud"width="10" height="8" viewBox="0 0 10 8" fill="none" xmlns="http://www.w3.org/2000/svg">
<path d="M6.61096 2.08167C6.16093 0.922381 4.85626 0.347477 3.69703 0.797573C2.83387 1.13264 2.26385 1.96199 2.26028 2.88788C2.25557 2.97053 2.25557 3.0533 2.26028 3.13595C1.13241 3.65975 0.642781 4.99871 1.16658 6.12657C1.52932 6.90756 2.30572 7.41329 3.16667 7.42939L3.19052 7.44847H6.52987C8.01188 7.47089 9.23139 6.28763 9.25382 4.80562C9.27618 3.32361 8.09298 2.10409 6.61096 2.08167ZM6.55849 6.50869H3.21914C2.50512 6.58245 1.86653 6.06348 1.79277 5.34946C1.719 4.63543 2.23797 3.99684 2.952 3.92308C3.21026 3.87102 3.37747 3.6195 3.32541 3.36118C3.32141 3.34144 3.31622 3.32194 3.30978 3.30292C3.26321 3.16946 3.23906 3.02921 3.23823 2.88788C3.23417 2.17124 3.81176 1.58703 4.52841 1.58291C5.16234 1.57928 5.70606 2.03426 5.81429 2.6589C5.85812 2.90971 6.09122 3.08186 6.34382 3.05008C6.41531 3.04537 6.48699 3.04537 6.55849 3.05008C7.51354 3.05008 8.28779 3.82433 8.28779 4.77938C8.28779 5.73444 7.51354 6.50869 6.55849 6.50869Z" fill="#2D383F"/>
</symbol>

<symbol id="right-cloud" width="9" height="7" viewBox="0 0 9 7" fill="none" xmlns="http://www.w3.org/2000/svg">
<path d="M7.69657 2.63977C7.70128 2.55712 7.70128 2.47435 7.69657 2.3917C7.69174 1.14815 6.67973 0.143962 5.43619 0.148733C4.51703 0.152311 3.69364 0.714394 3.35387 1.56706C1.87937 1.59795 0.704573 2.81371 0.726875 4.29036C0.749296 5.77237 1.96881 6.95563 3.45083 6.93321H6.79017C8.03354 6.90995 9.02264 5.88322 8.99939 4.63985C8.98329 3.7789 8.47755 3.0025 7.69657 2.63977ZM8.0559 4.94737C7.9296 5.53987 7.41022 5.96611 6.80448 5.97434H3.46514C2.51008 5.97434 1.73583 5.20009 1.73583 4.24504C1.73583 3.28998 2.51008 2.51573 3.46514 2.51573C3.53663 2.51102 3.60831 2.51102 3.67981 2.51573C3.9212 2.54078 4.14291 2.38067 4.19502 2.14363C4.31458 1.43706 4.9843 0.961207 5.69093 1.08077C6.3975 1.20033 6.87336 1.87005 6.7538 2.57667C6.74163 2.64841 6.7235 2.71901 6.69953 2.78771C6.61527 3.03733 6.74938 3.30799 6.99906 3.39225C7.01814 3.39869 7.03758 3.40394 7.05732 3.40787C7.75822 3.55719 8.20528 4.24647 8.0559 4.94737Z" fill="#2D383F"/>
</symbol>

<symbol id="ellipse" width="14" height="14" viewBox="0 0 14 14" fill="none" xmlns="http://www.w3.org/2000/svg">
<circle cx="7" cy="7" r="7" fill="#0266C1"/>
</symbol>

<symbol id="lmark"width="30" height="23" viewBox="0 0 30 23" fill="none" xmlns="http://www.w3.org/2000/svg">
<path opacity="0.05" d="M17.668 22.052L16.81 17.894C21.474 17.41 23.63 15.232 23.278 11.36H19.186V0.799997H29.878V9.71C29.878 13.934 28.844 17.036 26.776 19.016C24.752 20.952 21.716 21.964 17.668 22.052ZM0.904 22.052L0.0460001 17.894C4.71 17.41 6.866 15.232 6.514 11.36H2.422V0.799997H13.114V9.71C13.114 13.934 12.08 17.036 10.012 19.016C7.988 20.952 4.952 21.964 0.904 22.052Z" fill="#2D383F"/>
</symbol>

<symbol id="rmark" width="31" height="22" viewBox="0 0 31 22" fill="none" xmlns="http://www.w3.org/2000/svg">
<path opacity="0.05" d="M17.0148 21.722V12.812C17.0148 8.588 18.0268 5.508 20.0508 3.572C22.1188 1.592 25.1768 0.557999 29.2248 0.469997L30.0828 4.628C25.4188 5.112 23.2628 7.29 23.6148 11.162H27.7068V21.722H17.0148ZM0.25077 21.722V12.812C0.25077 8.588 1.26277 5.508 3.28677 3.572C5.35477 1.592 8.41277 0.557999 12.4608 0.469997L13.3188 4.628C8.65477 5.112 6.49877 7.29 6.85077 11.162H10.9428V21.722H0.25077Z" fill="#2D383F"/>
</symbol>

</svg>