<svg width="226" height="62" viewBox="0 0 226 62" fill="none" xmlns="http://www.w3.org/2000/svg">
<g clip-path="url(#clip0_2_1032)">
<path d="M22.7825 40.1768L28.2395 34.447L34.4468 40.1768H45.0878L28.1713 23.6013L11.3911 40.1768H22.7825Z" fill="#2D383F"/>
<path d="M38.4033 13.5742L30.3543 21.7596L35.6749 27.2166L38.4033 24.4881L53.3418 39.3583C49.9312 48.4305 41.2 54.9106 30.9 54.9106C17.6669 54.9106 6.95762 44.2014 6.95762 30.9682C7.02583 17.7351 17.7351 7.02583 30.9682 7.02583C42.7007 7.02583 52.5232 15.5523 54.5014 26.6709L61.7318 34.3106C61.8683 33.2192 61.9365 32.0596 61.9365 30.9682C61.9365 22.7146 58.7305 14.9384 52.8643 9.07219C46.998 3.20596 39.2219 0 30.9682 0C22.6464 0 14.9384 3.20596 9.07219 9.07219C3.20596 14.9384 0 22.6464 0 30.9682C0 39.2901 3.20596 46.998 9.07219 52.8643C14.9384 58.7305 22.7146 61.9365 30.9682 61.9365C39.2219 61.9365 46.998 58.7305 52.8643 52.8643C56.4795 49.249 59.0716 44.9517 60.504 40.2451C60.7769 39.4265 60.9815 38.5398 61.1861 37.7212L54.9106 31.1047L38.4033 13.5742Z" fill="white"/>
</g>
<path d="M93.154 36.322C91.5287 36.322 90.1027 36.0307 88.876 35.448C87.6493 34.85 86.7063 34.0143 86.047 32.941C85.3877 31.8677 85.058 30.6333 85.058 29.238C85.058 27.398 85.4797 25.742 86.323 24.27C87.1817 22.798 88.3777 21.648 89.911 20.82C91.4443 19.992 93.1923 19.578 95.155 19.578C96.6423 19.578 97.961 19.8463 99.111 20.383C100.261 20.9043 101.12 21.648 101.687 22.614L98.398 25.236C97.616 23.9787 96.4353 23.35 94.856 23.35C93.8287 23.35 92.924 23.5953 92.142 24.086C91.36 24.5613 90.7467 25.2283 90.302 26.087C89.8727 26.9303 89.658 27.881 89.658 28.939C89.658 30.0277 90.0107 30.9017 90.716 31.561C91.4213 32.2203 92.3797 32.55 93.591 32.55C95.1243 32.55 96.4353 31.929 97.524 30.687L100.215 33.332C99.341 34.39 98.3213 35.1567 97.156 35.632C95.9907 36.092 94.6567 36.322 93.154 36.322ZM112.671 32.872H105.817L103.954 36H99.1469L109.474 19.9H113.959L117.846 36H113.315L112.671 32.872ZM111.981 29.514L110.9 24.293L107.818 29.514H111.981ZM126.666 36.322C125.271 36.322 124.067 36.092 123.055 35.632C122.043 35.1567 121.269 34.482 120.732 33.608C120.195 32.734 119.927 31.7067 119.927 30.526C119.927 30.0353 119.988 29.468 120.111 28.824L121.905 19.9H126.459L124.688 28.755C124.596 29.215 124.55 29.6367 124.55 30.02C124.55 31.7067 125.439 32.55 127.218 32.55C128.184 32.55 128.943 32.2587 129.495 31.676C130.062 31.078 130.484 30.1043 130.76 28.755L132.531 19.9H137.016L135.199 29.031C134.218 33.8917 131.373 36.322 126.666 36.322ZM145.69 36.322C144.065 36.322 142.639 36.0307 141.412 35.448C140.185 34.85 139.242 34.0143 138.583 32.941C137.924 31.8677 137.594 30.6333 137.594 29.238C137.594 27.398 138.016 25.742 138.859 24.27C139.718 22.798 140.914 21.648 142.447 20.82C143.98 19.992 145.728 19.578 147.691 19.578C149.178 19.578 150.497 19.8463 151.647 20.383C152.797 20.9043 153.656 21.648 154.223 22.614L150.934 25.236C150.152 23.9787 148.971 23.35 147.392 23.35C146.365 23.35 145.46 23.5953 144.678 24.086C143.896 24.5613 143.283 25.2283 142.838 26.087C142.409 26.9303 142.194 27.881 142.194 28.939C142.194 30.0277 142.547 30.9017 143.252 31.561C143.957 32.2203 144.916 32.55 146.127 32.55C147.66 32.55 148.971 31.929 150.06 30.687L152.751 33.332C151.877 34.39 150.857 35.1567 149.692 35.632C148.527 36.092 147.193 36.322 145.69 36.322ZM165.207 32.872H158.353L156.49 36H151.683L162.01 19.9H166.495L170.382 36H165.851L165.207 32.872ZM164.517 29.514L163.436 24.293L160.354 29.514H164.517ZM177.699 36.322C176.365 36.322 175.1 36.161 173.904 35.839C172.708 35.517 171.734 35.103 170.983 34.597L172.777 31.193C173.59 31.7143 174.456 32.113 175.376 32.389C176.296 32.6497 177.216 32.78 178.136 32.78C179.01 32.78 179.685 32.6573 180.16 32.412C180.651 32.1513 180.896 31.7987 180.896 31.354C180.896 30.9707 180.674 30.6717 180.229 30.457C179.8 30.2423 179.125 30.0123 178.205 29.767C177.162 29.491 176.296 29.215 175.606 28.939C174.916 28.6477 174.318 28.2107 173.812 27.628C173.321 27.0453 173.076 26.2787 173.076 25.328C173.076 24.178 173.39 23.1737 174.019 22.315C174.648 21.441 175.545 20.7663 176.71 20.291C177.875 19.8157 179.24 19.578 180.804 19.578C181.954 19.578 183.027 19.7007 184.024 19.946C185.021 20.176 185.879 20.5133 186.6 20.958L184.944 24.339C184.315 23.9403 183.618 23.6413 182.851 23.442C182.1 23.2273 181.325 23.12 180.528 23.12C179.623 23.12 178.91 23.2657 178.389 23.557C177.883 23.8483 177.63 24.224 177.63 24.684C177.63 25.0827 177.852 25.3893 178.297 25.604C178.742 25.8187 179.432 26.0487 180.367 26.294C181.41 26.5547 182.268 26.823 182.943 27.099C183.633 27.375 184.223 27.7967 184.714 28.364C185.205 28.9313 185.45 29.675 185.45 30.595C185.45 31.7297 185.128 32.734 184.484 33.608C183.855 34.4667 182.951 35.1337 181.77 35.609C180.605 36.0843 179.248 36.322 177.699 36.322ZM194.431 36.322C193.035 36.322 191.832 36.092 190.82 35.632C189.808 35.1567 189.033 34.482 188.497 33.608C187.96 32.734 187.692 31.7067 187.692 30.526C187.692 30.0353 187.753 29.468 187.876 28.824L189.67 19.9H194.224L192.453 28.755C192.361 29.215 192.315 29.6367 192.315 30.02C192.315 31.7067 193.204 32.55 194.983 32.55C195.949 32.55 196.708 32.2587 197.26 31.676C197.827 31.078 198.249 30.1043 198.525 28.755L200.296 19.9H204.781L202.964 29.031C201.982 33.8917 199.138 36.322 194.431 36.322ZM210.672 36.322C209.338 36.322 208.073 36.161 206.877 35.839C205.681 35.517 204.707 35.103 203.956 34.597L205.75 31.193C206.562 31.7143 207.429 32.113 208.349 32.389C209.269 32.6497 210.189 32.78 211.109 32.78C211.983 32.78 212.657 32.6573 213.133 32.412C213.623 32.1513 213.869 31.7987 213.869 31.354C213.869 30.9707 213.646 30.6717 213.202 30.457C212.772 30.2423 212.098 30.0123 211.178 29.767C210.135 29.491 209.269 29.215 208.579 28.939C207.889 28.6477 207.291 28.2107 206.785 27.628C206.294 27.0453 206.049 26.2787 206.049 25.328C206.049 24.178 206.363 23.1737 206.992 22.315C207.62 21.441 208.517 20.7663 209.683 20.291C210.848 19.8157 212.213 19.578 213.777 19.578C214.927 19.578 216 19.7007 216.997 19.946C217.993 20.176 218.852 20.5133 219.573 20.958L217.917 24.339C217.288 23.9403 216.59 23.6413 215.824 23.442C215.072 23.2273 214.298 23.12 213.501 23.12C212.596 23.12 211.883 23.2657 211.362 23.557C210.856 23.8483 210.603 24.224 210.603 24.684C210.603 25.0827 210.825 25.3893 211.27 25.604C211.714 25.8187 212.404 26.0487 213.34 26.294C214.382 26.5547 215.241 26.823 215.916 27.099C216.606 27.375 217.196 27.7967 217.687 28.364C218.177 28.9313 218.423 29.675 218.423 30.595C218.423 31.7297 218.101 32.734 217.457 33.608C216.828 34.4667 215.923 35.1337 214.743 35.609C213.577 36.0843 212.22 36.322 210.672 36.322Z" fill="white"/>
<path d="M87.3006 51.1806C86.746 51.1806 86.242 51.0579 85.7886 50.8126C85.3406 50.5619 84.9886 50.2206 84.7326 49.7886C84.482 49.3566 84.3566 48.8712 84.3566 48.3326C84.3566 47.7939 84.482 47.3086 84.7326 46.8766C84.9886 46.4446 85.3406 46.1059 85.7886 45.8606C86.242 45.6099 86.746 45.4846 87.3006 45.4846C87.8553 45.4846 88.354 45.6072 88.7966 45.8526C89.2446 46.0979 89.5966 46.4392 89.8526 46.8766C90.1086 47.3086 90.2366 47.7939 90.2366 48.3326C90.2366 48.8712 90.1086 49.3592 89.8526 49.7966C89.5966 50.2286 89.2446 50.5672 88.7966 50.8126C88.354 51.0579 87.8553 51.1806 87.3006 51.1806ZM87.3006 50.6526C87.7433 50.6526 88.1433 50.5539 88.5006 50.3566C88.858 50.1539 89.138 49.8766 89.3406 49.5246C89.5433 49.1672 89.6446 48.7699 89.6446 48.3326C89.6446 47.8952 89.5433 47.5006 89.3406 47.1486C89.138 46.7912 88.858 46.5139 88.5006 46.3166C88.1433 46.1139 87.7433 46.0126 87.3006 46.0126C86.858 46.0126 86.4553 46.1139 86.0926 46.3166C85.7353 46.5139 85.4526 46.7912 85.2446 47.1486C85.042 47.5006 84.9406 47.8952 84.9406 48.3326C84.9406 48.7699 85.042 49.1672 85.2446 49.5246C85.4526 49.8766 85.7353 50.1539 86.0926 50.3566C86.4553 50.5539 86.858 50.6526 87.3006 50.6526ZM93.6813 46.8926C94.076 46.8926 94.4333 46.9832 94.7533 47.1646C95.0733 47.3406 95.324 47.5912 95.5053 47.9166C95.6867 48.2419 95.7773 48.6126 95.7773 49.0286C95.7773 49.4499 95.6867 49.8232 95.5053 50.1486C95.324 50.4739 95.0733 50.7272 94.7533 50.9086C94.4387 51.0846 94.0813 51.1726 93.6813 51.1726C93.34 51.1726 93.0307 51.1032 92.7533 50.9646C92.4813 50.8206 92.2573 50.6126 92.0813 50.3406V52.6846H91.5133V46.9246H92.0573V47.7566C92.228 47.4792 92.452 47.2659 92.7293 47.1166C93.012 46.9672 93.3293 46.8926 93.6813 46.8926ZM93.6413 50.6686C93.9347 50.6686 94.2013 50.6019 94.4413 50.4686C94.6813 50.3299 94.868 50.1352 95.0013 49.8846C95.14 49.6339 95.2093 49.3486 95.2093 49.0286C95.2093 48.7086 95.14 48.4259 95.0013 48.1806C94.868 47.9299 94.6813 47.7352 94.4413 47.5966C94.2013 47.4579 93.9347 47.3886 93.6413 47.3886C93.3427 47.3886 93.0733 47.4579 92.8333 47.5966C92.5987 47.7352 92.412 47.9299 92.2733 48.1806C92.14 48.4259 92.0733 48.7086 92.0733 49.0286C92.0733 49.3486 92.14 49.6339 92.2733 49.8846C92.412 50.1352 92.5987 50.3299 92.8333 50.4686C93.0733 50.6019 93.3427 50.6686 93.6413 50.6686ZM99.9737 47.4286H97.5657V51.1326H96.9977V46.9246H99.9737V47.4286ZM102.243 46.8926C102.792 46.8926 103.213 47.0312 103.507 47.3086C103.8 47.5806 103.947 47.9859 103.947 48.5246V51.1326H103.403V50.4766C103.275 50.6952 103.085 50.8659 102.835 50.9886C102.589 51.1112 102.296 51.1726 101.955 51.1726C101.485 51.1726 101.112 51.0606 100.835 50.8366C100.557 50.6126 100.419 50.3166 100.419 49.9486C100.419 49.5912 100.547 49.3032 100.803 49.0846C101.064 48.8659 101.477 48.7566 102.043 48.7566H103.379V48.5006C103.379 48.1379 103.277 47.8632 103.075 47.6766C102.872 47.4846 102.576 47.3886 102.187 47.3886C101.92 47.3886 101.664 47.4339 101.419 47.5246C101.173 47.6099 100.963 47.7299 100.787 47.8846L100.531 47.4606C100.744 47.2792 101 47.1406 101.299 47.0446C101.597 46.9432 101.912 46.8926 102.243 46.8926ZM102.043 50.7246C102.363 50.7246 102.637 50.6526 102.867 50.5086C103.096 50.3592 103.267 50.1459 103.379 49.8686V49.1806H102.059C101.339 49.1806 100.979 49.4312 100.979 49.9326C100.979 50.1779 101.072 50.3726 101.259 50.5166C101.445 50.6552 101.707 50.7246 102.043 50.7246ZM105.459 46.9246H106.027V48.7886H108.675V46.9246H109.243V51.1326H108.675V49.2766H106.027V51.1326H105.459V46.9246ZM110.857 46.9246H111.425V50.2686L114.233 46.9246H114.737V51.1326H114.169V47.7886L111.369 51.1326H110.857V46.9246ZM118.327 48.9406C118.626 49.0099 118.855 49.1299 119.015 49.3006C119.18 49.4712 119.263 49.6792 119.263 49.9246C119.263 50.1699 119.178 50.3886 119.007 50.5806C118.842 50.7726 118.615 50.9219 118.327 51.0286C118.039 51.1299 117.722 51.1806 117.375 51.1806C117.071 51.1806 116.772 51.1379 116.479 51.0526C116.186 50.9619 115.93 50.8312 115.711 50.6606L115.903 50.2366C116.095 50.3806 116.319 50.4926 116.575 50.5726C116.831 50.6526 117.09 50.6926 117.351 50.6926C117.74 50.6926 118.058 50.6206 118.303 50.4766C118.554 50.3272 118.679 50.1272 118.679 49.8766C118.679 49.6526 118.578 49.4792 118.375 49.3566C118.172 49.2286 117.895 49.1646 117.543 49.1646H116.823V48.7486H117.511C117.826 48.7486 118.079 48.6899 118.271 48.5726C118.463 48.4499 118.559 48.2872 118.559 48.0846C118.559 47.8606 118.45 47.6846 118.231 47.5566C118.018 47.4286 117.738 47.3646 117.391 47.3646C116.938 47.3646 116.49 47.4792 116.047 47.7086L115.887 47.2686C116.388 47.0072 116.908 46.8766 117.447 46.8766C117.767 46.8766 118.055 46.9246 118.311 47.0206C118.572 47.1112 118.775 47.2419 118.919 47.4126C119.068 47.5832 119.143 47.7806 119.143 48.0046C119.143 48.2179 119.068 48.4072 118.919 48.5726C118.775 48.7379 118.578 48.8606 118.327 48.9406ZM122 46.8926C122.55 46.8926 122.971 47.0312 123.264 47.3086C123.558 47.5806 123.704 47.9859 123.704 48.5246V51.1326H123.16V50.4766C123.032 50.6952 122.843 50.8659 122.592 50.9886C122.347 51.1112 122.054 51.1726 121.712 51.1726C121.243 51.1726 120.87 51.0606 120.592 50.8366C120.315 50.6126 120.176 50.3166 120.176 49.9486C120.176 49.5912 120.304 49.3032 120.56 49.0846C120.822 48.8659 121.235 48.7566 121.8 48.7566H123.136V48.5006C123.136 48.1379 123.035 47.8632 122.832 47.6766C122.63 47.4846 122.334 47.3886 121.944 47.3886C121.678 47.3886 121.422 47.4339 121.176 47.5246C120.931 47.6099 120.72 47.7299 120.544 47.8846L120.288 47.4606C120.502 47.2792 120.758 47.1406 121.056 47.0446C121.355 46.9432 121.67 46.8926 122 46.8926ZM121.8 50.7246C122.12 50.7246 122.395 50.6526 122.624 50.5086C122.854 50.3592 123.024 50.1459 123.136 49.8686V49.1806H121.816C121.096 49.1806 120.736 49.4312 120.736 49.9326C120.736 50.1779 120.83 50.3726 121.016 50.5166C121.203 50.6552 121.464 50.7246 121.8 50.7246ZM129.6 50.6366V52.1886H129.064V51.1326H125.216V46.9246H125.784V50.6366H128.352V46.9246H128.92V50.6366H129.6ZM130.685 46.9246H131.253V50.2686L134.061 46.9246H134.565V51.1326H133.997V47.7886L131.197 51.1326H130.685V46.9246ZM139.425 46.9246V51.1326H138.905V49.7406H137.585H137.425L136.449 51.1326H135.833L136.881 49.6606C136.556 49.5699 136.305 49.4152 136.129 49.1966C135.953 48.9779 135.865 48.7006 135.865 48.3646C135.865 47.8952 136.025 47.5379 136.345 47.2926C136.665 47.0472 137.102 46.9246 137.657 46.9246H139.425ZM136.441 48.3806C136.441 49.0046 136.838 49.3166 137.633 49.3166H138.905V47.4286H137.673C136.852 47.4286 136.441 47.7459 136.441 48.3806ZM146.914 46.9246V51.1326H146.346V47.4286H143.706V51.1326H143.138V46.9246H146.914ZM150.265 51.1726C149.86 51.1726 149.494 51.0819 149.169 50.9006C148.844 50.7139 148.588 50.4579 148.401 50.1326C148.214 49.8072 148.121 49.4392 148.121 49.0286C148.121 48.6179 148.214 48.2499 148.401 47.9246C148.588 47.5992 148.844 47.3459 149.169 47.1646C149.494 46.9832 149.86 46.8926 150.265 46.8926C150.67 46.8926 151.036 46.9832 151.361 47.1646C151.686 47.3459 151.94 47.5992 152.121 47.9246C152.308 48.2499 152.401 48.6179 152.401 49.0286C152.401 49.4392 152.308 49.8072 152.121 50.1326C151.94 50.4579 151.686 50.7139 151.361 50.9006C151.036 51.0819 150.67 51.1726 150.265 51.1726ZM150.265 50.6686C150.564 50.6686 150.83 50.6019 151.065 50.4686C151.305 50.3299 151.492 50.1352 151.625 49.8846C151.758 49.6339 151.825 49.3486 151.825 49.0286C151.825 48.7086 151.758 48.4232 151.625 48.1726C151.492 47.9219 151.305 47.7299 151.065 47.5966C150.83 47.4579 150.564 47.3886 150.265 47.3886C149.966 47.3886 149.697 47.4579 149.457 47.5966C149.222 47.7299 149.036 47.9219 148.897 48.1726C148.764 48.4232 148.697 48.7086 148.697 49.0286C148.697 49.3486 148.764 49.6339 148.897 49.8846C149.036 50.1352 149.222 50.3299 149.457 50.4686C149.697 50.6019 149.966 50.6686 150.265 50.6686ZM156.098 51.1326L154.762 49.3726L153.418 51.1326H152.778L154.442 48.9726L152.858 46.9246H153.498L154.762 48.5726L156.026 46.9246H156.65L155.066 48.9726L156.746 51.1326H156.098ZM159.265 51.1726C158.86 51.1726 158.494 51.0819 158.169 50.9006C157.844 50.7139 157.588 50.4579 157.401 50.1326C157.214 49.8072 157.121 49.4392 157.121 49.0286C157.121 48.6179 157.214 48.2499 157.401 47.9246C157.588 47.5992 157.844 47.3459 158.169 47.1646C158.494 46.9832 158.86 46.8926 159.265 46.8926C159.67 46.8926 160.036 46.9832 160.361 47.1646C160.686 47.3459 160.94 47.5992 161.121 47.9246C161.308 48.2499 161.401 48.6179 161.401 49.0286C161.401 49.4392 161.308 49.8072 161.121 50.1326C160.94 50.4579 160.686 50.7139 160.361 50.9006C160.036 51.0819 159.67 51.1726 159.265 51.1726ZM159.265 50.6686C159.564 50.6686 159.83 50.6019 160.065 50.4686C160.305 50.3299 160.492 50.1352 160.625 49.8846C160.758 49.6339 160.825 49.3486 160.825 49.0286C160.825 48.7086 160.758 48.4232 160.625 48.1726C160.492 47.9219 160.305 47.7299 160.065 47.5966C159.83 47.4579 159.564 47.3886 159.265 47.3886C158.966 47.3886 158.697 47.4579 158.457 47.5966C158.222 47.7299 158.036 47.9219 157.897 48.1726C157.764 48.4232 157.697 48.7086 157.697 49.0286C157.697 49.3486 157.764 49.6339 157.897 49.8846C158.036 50.1352 158.222 50.3299 158.457 50.4686C158.697 50.6019 158.966 50.6686 159.265 50.6686ZM166.695 50.6366V52.1486H166.159V51.1326H162.391V52.1486H161.855V50.6366H162.095C162.378 50.6206 162.57 50.4126 162.671 50.0126C162.773 49.6126 162.842 49.0526 162.879 48.3326L162.935 46.9246H166.039V50.6366H166.695ZM163.399 48.3646C163.373 48.9619 163.322 49.4552 163.247 49.8446C163.173 50.2286 163.039 50.4926 162.847 50.6366H165.471V47.4286H163.447L163.399 48.3646ZM169.538 51.1726C169.133 51.1726 168.768 51.0819 168.442 50.9006C168.117 50.7139 167.861 50.4579 167.674 50.1326C167.488 49.8072 167.394 49.4392 167.394 49.0286C167.394 48.6179 167.488 48.2499 167.674 47.9246C167.861 47.5992 168.117 47.3459 168.442 47.1646C168.768 46.9832 169.133 46.8926 169.538 46.8926C169.944 46.8926 170.309 46.9832 170.634 47.1646C170.96 47.3459 171.213 47.5992 171.394 47.9246C171.581 48.2499 171.674 48.6179 171.674 49.0286C171.674 49.4392 171.581 49.8072 171.394 50.1326C171.213 50.4579 170.96 50.7139 170.634 50.9006C170.309 51.0819 169.944 51.1726 169.538 51.1726ZM169.538 50.6686C169.837 50.6686 170.104 50.6019 170.338 50.4686C170.578 50.3299 170.765 50.1352 170.898 49.8846C171.032 49.6339 171.098 49.3486 171.098 49.0286C171.098 48.7086 171.032 48.4232 170.898 48.1726C170.765 47.9219 170.578 47.7299 170.338 47.5966C170.104 47.4579 169.837 47.3886 169.538 47.3886C169.24 47.3886 168.97 47.4579 168.73 47.5966C168.496 47.7299 168.309 47.9219 168.17 48.1726C168.037 48.4232 167.97 48.7086 167.97 49.0286C167.97 49.3486 168.037 49.6339 168.17 49.8846C168.309 50.1352 168.496 50.3299 168.73 50.4686C168.97 50.6019 169.24 50.6686 169.538 50.6686ZM175.568 48.9566C176.139 49.0899 176.424 49.4339 176.424 49.9886C176.424 50.3566 176.288 50.6392 176.016 50.8366C175.744 51.0339 175.339 51.1326 174.8 51.1326H172.888V46.9246H174.744C175.224 46.9246 175.6 47.0179 175.872 47.2046C176.144 47.3912 176.28 47.6579 176.28 48.0046C176.28 48.2339 176.216 48.4312 176.088 48.5966C175.966 48.7566 175.792 48.8766 175.568 48.9566ZM173.44 48.7966H174.704C175.03 48.7966 175.278 48.7352 175.448 48.6126C175.624 48.4899 175.712 48.3112 175.712 48.0766C175.712 47.8419 175.624 47.6659 175.448 47.5486C175.278 47.4312 175.03 47.3726 174.704 47.3726H173.44V48.7966ZM174.776 50.6846C175.139 50.6846 175.411 50.6259 175.592 50.5086C175.774 50.3912 175.864 50.2072 175.864 49.9566C175.864 49.7059 175.782 49.5219 175.616 49.4046C175.451 49.2819 175.19 49.2206 174.832 49.2206H173.44V50.6846H174.776ZM182.529 48.9566C183.1 49.0899 183.385 49.4339 183.385 49.9886C183.385 50.3566 183.249 50.6392 182.977 50.8366C182.705 51.0339 182.3 51.1326 181.761 51.1326H179.849V46.9246H181.705C182.185 46.9246 182.561 47.0179 182.833 47.2046C183.105 47.3912 183.241 47.6579 183.241 48.0046C183.241 48.2339 183.177 48.4312 183.049 48.5966C182.927 48.7566 182.753 48.8766 182.529 48.9566ZM180.401 48.7966H181.665C181.991 48.7966 182.239 48.7352 182.409 48.6126C182.585 48.4899 182.673 48.3112 182.673 48.0766C182.673 47.8419 182.585 47.6659 182.409 47.5486C182.239 47.4312 181.991 47.3726 181.665 47.3726H180.401V48.7966ZM181.737 50.6846C182.1 50.6846 182.372 50.6259 182.553 50.5086C182.735 50.3912 182.825 50.2072 182.825 49.9566C182.825 49.7059 182.743 49.5219 182.577 49.4046C182.412 49.2819 182.151 49.2206 181.793 49.2206H180.401V50.6846H181.737ZM189.786 47.4286H187.378V51.1326H186.81V46.9246H189.786V47.4286ZM192.148 51.1726C191.742 51.1726 191.377 51.0819 191.052 50.9006C190.726 50.7139 190.47 50.4579 190.284 50.1326C190.097 49.8072 190.004 49.4392 190.004 49.0286C190.004 48.6179 190.097 48.2499 190.284 47.9246C190.47 47.5992 190.726 47.3459 191.052 47.1646C191.377 46.9832 191.742 46.8926 192.148 46.8926C192.553 46.8926 192.918 46.9832 193.244 47.1646C193.569 47.3459 193.822 47.5992 194.004 47.9246C194.19 48.2499 194.284 48.6179 194.284 49.0286C194.284 49.4392 194.19 49.8072 194.004 50.1326C193.822 50.4579 193.569 50.7139 193.244 50.9006C192.918 51.0819 192.553 51.1726 192.148 51.1726ZM192.148 50.6686C192.446 50.6686 192.713 50.6019 192.948 50.4686C193.188 50.3299 193.374 50.1352 193.508 49.8846C193.641 49.6339 193.708 49.3486 193.708 49.0286C193.708 48.7086 193.641 48.4232 193.508 48.1726C193.374 47.9219 193.188 47.7299 192.948 47.5966C192.713 47.4579 192.446 47.3886 192.148 47.3886C191.849 47.3886 191.58 47.4579 191.34 47.5966C191.105 47.7299 190.918 47.9219 190.78 48.1726C190.646 48.4232 190.58 48.7086 190.58 49.0286C190.58 49.3486 190.646 49.6339 190.78 49.8846C190.918 50.1352 191.105 50.3299 191.34 50.4686C191.58 50.6019 191.849 50.6686 192.148 50.6686ZM197.666 46.8926C198.06 46.8926 198.418 46.9832 198.738 47.1646C199.058 47.3406 199.308 47.5912 199.49 47.9166C199.671 48.2419 199.762 48.6126 199.762 49.0286C199.762 49.4499 199.671 49.8232 199.49 50.1486C199.308 50.4739 199.058 50.7272 198.738 50.9086C198.423 51.0846 198.066 51.1726 197.666 51.1726C197.324 51.1726 197.015 51.1032 196.738 50.9646C196.466 50.8206 196.242 50.6126 196.066 50.3406V52.6846H195.498V46.9246H196.042V47.7566C196.212 47.4792 196.436 47.2659 196.714 47.1166C196.996 46.9672 197.314 46.8926 197.666 46.8926ZM197.626 50.6686C197.919 50.6686 198.186 50.6019 198.426 50.4686C198.666 50.3299 198.852 50.1352 198.986 49.8846C199.124 49.6339 199.194 49.3486 199.194 49.0286C199.194 48.7086 199.124 48.4259 198.986 48.1806C198.852 47.9299 198.666 47.7352 198.426 47.5966C198.186 47.4579 197.919 47.3886 197.626 47.3886C197.327 47.3886 197.058 47.4579 196.818 47.5966C196.583 47.7352 196.396 47.9299 196.258 48.1806C196.124 48.4259 196.058 48.7086 196.058 49.0286C196.058 49.3486 196.124 49.6339 196.258 49.8846C196.396 50.1352 196.583 50.3299 196.818 50.4686C197.058 50.6019 197.327 50.6686 197.626 50.6686ZM202.75 48.4126C203.278 48.4179 203.681 48.5352 203.958 48.7646C204.235 48.9939 204.374 49.3246 204.374 49.7566C204.374 50.2046 204.225 50.5486 203.926 50.7886C203.627 51.0286 203.201 51.1459 202.646 51.1406L200.982 51.1326V46.9246H201.55V48.3966L202.75 48.4126ZM205.078 46.9246H205.646V51.1326H205.078V46.9246ZM202.614 50.7086C203.003 50.7139 203.297 50.6366 203.494 50.4766C203.697 50.3112 203.798 50.0712 203.798 49.7566C203.798 49.4472 203.699 49.2179 203.502 49.0686C203.305 48.9192 203.009 48.8419 202.614 48.8366L201.55 48.8206V50.6926L202.614 50.7086Z" fill="white"/>
<defs>
<clipPath id="clip0_2_1032">
<rect width="61.8683" height="61.8683" fill="#2D383F"/>
</clipPath>
</defs>
</svg>
